<svg width="126" height="55" viewBox="0 0 126 55" fill="none" xmlns="http://www.w3.org/2000/svg">
<path d="M30.8383 5.64552H27.6294V1.86791H30.8592C31.8176 1.86791 32.6094 2.71891 32.6094 3.75672C32.5886 4.79452 31.8176 5.64552 30.8383 5.64552ZM33.0679 8.88347C33.0679 9.98354 32.2344 10.876 31.2134 10.876H27.6294V6.87013H31.2134C32.2344 6.89088 33.0679 7.78339 33.0679 8.88347ZM34.3181 8.88347C34.3181 7.70037 33.693 6.66257 32.6511 6.16442C33.4012 5.62476 33.8388 4.75301 33.8388 3.77747C33.8388 2.05472 32.4844 0.664062 30.8175 0.664062H26.3584V12.1214H31.1925C32.922 12.1007 34.3181 10.6685 34.3181 8.88347Z" fill="white"/>
<path d="M37.2771 1.86792H40.4651C41.632 1.86792 42.5696 2.86421 42.5696 4.10958C42.5696 5.35494 41.632 6.35124 40.4651 6.35124H37.2771V1.86792ZM37.2771 7.5966H40.1942L42.7571 12.1214H44.1949L41.5069 7.43055C42.8822 6.97392 43.8198 5.64553 43.8198 4.13034C43.8198 2.22078 42.3196 0.664073 40.4651 0.664073H36.0269V12.1214H37.2771V7.5966ZM48.0497 12.1007H49.2999V7.4098L53.3006 0.643316H51.8837L48.6956 6.10216L45.5076 0.684827L45.4868 0.643316H44.0699L48.0497 7.38904V12.1007ZM54.7591 8.09474L56.8428 2.36607L58.9265 8.09474H54.7591ZM51.9462 12.1007H53.2797L54.3007 9.31936H59.3641L60.3851 12.1007H61.7186L57.4888 0.684827L57.4679 0.622559H56.2385L52.0295 11.9761C51.9878 11.9969 51.9462 12.1007 51.9462 12.1007Z" fill="white"/>
<path d="M64.1565 3.11328L70.0741 12.0799L70.095 12.1214H71.1576V0.664068H69.9074V9.6722L63.9898 0.684822L63.9689 0.643311H62.9062V12.1007H64.1565V3.11328Z" fill="white"/>
<path d="M40.6317 26.194C42.6738 26.194 44.5074 25.1147 45.4242 23.3504L45.4659 23.2881L44.3615 22.6447L44.3199 22.7277C43.6531 24.0769 42.2153 24.9486 40.6317 24.9486C38.0063 24.9486 36.0893 22.9976 36.0893 20.2785C36.0893 17.5802 38.0063 15.6084 40.6317 15.6084C42.1945 15.6084 43.6531 16.4802 44.3199 17.8293L44.3615 17.9123L45.4659 17.2481L45.4242 17.1859C44.4866 15.4424 42.6529 14.363 40.6317 14.363C37.3187 14.363 34.8391 16.916 34.8391 20.2993C34.8391 23.641 37.3395 26.194 40.6317 26.194ZM52.6754 21.9805H48.5081L50.5917 16.2518L52.6754 21.9805ZM51.2168 14.5291H49.9875L45.7784 25.8827L45.7368 25.9864H47.0703L48.0913 23.2051H53.1547L54.1757 25.9864H55.5092L51.2794 14.5706L51.2168 14.5291ZM55.4259 14.5914L55.4051 14.5291H54.0507L58.1138 25.9449L58.1347 26.0072H59.3849L63.4689 14.5498H62.1145L58.7806 24.1807L55.4259 14.5914ZM71.116 15.7537V14.5291H64.6358V25.9864H71.1994V24.7618H65.9068V20.8182H70.7409V19.5936H65.9068V15.7537H71.116Z" fill="white"/>
<path d="M1.75021 28.4148H0.5V39.8721H6.75104V38.6475H1.77105L1.75021 28.4148Z" fill="white"/>
<path d="M9.37643 34.7039H14.2106V33.4793H9.37643V29.6394H14.6065V28.4148H8.12622V39.8721H14.6898V38.6475H9.39727L9.37643 34.7039Z" fill="white"/>
<path d="M16.3776 39.8722H17.6278V28.4148H16.3776V39.8722ZM25.1499 40.059C28.3379 40.059 30.5675 37.9834 30.5675 34.9945V34.3303H24.9415V35.5549H29.2548C29.0047 37.5268 27.4003 38.7929 25.1499 38.7929C22.5245 38.7929 20.6075 36.8418 20.6075 34.1228C20.6075 31.4245 22.5245 29.4526 25.1499 29.4526C26.7127 29.4526 28.1712 30.3244 28.838 31.6735L28.8797 31.7566L29.984 31.0924L29.9424 31.0301C29.0047 29.2866 27.1502 28.2073 25.1499 28.2073C21.8369 28.2073 19.3573 30.7603 19.3573 34.1435C19.3364 37.5268 21.8369 40.059 25.1499 40.059ZM33.5263 34.6001H39.2773V39.8722H40.5275V28.4148H39.2773V33.3755H33.5263V28.4148H32.2761V39.8722H33.5263V34.6001ZM46.5285 39.8722V29.6394H49.8832V28.4148H41.9235V29.6394H45.2783V39.8722H46.5285ZM59.9474 34.1435C59.9474 36.7588 57.9887 38.8136 55.4883 38.8136C52.9879 38.8136 51.0292 36.7588 51.0292 34.1435C51.0292 31.5282 52.9879 29.4734 55.4883 29.4734C57.9679 29.4734 59.9474 31.5282 59.9474 34.1435ZM61.1976 34.1435C61.1976 30.8225 58.6763 28.2073 55.4675 28.2073C52.2586 28.2073 49.7373 30.8018 49.7373 34.1435C49.7373 37.4645 52.2586 40.0798 55.4675 40.0798C58.6763 40.0798 61.1976 37.4645 61.1976 34.1435ZM64.1564 30.8641L70.0741 39.8307L70.0949 39.8722H71.1576V28.4148H69.9074V37.423L63.9897 28.4356L63.9689 28.3941H62.9062V39.8514H64.1564V30.8641ZM21.1284 45.9122C21.1284 47.3029 20.1907 48.3199 18.878 48.3199H16.1484V43.5253H18.878C20.1699 43.5253 21.1284 44.5216 21.1284 45.9122ZM18.878 42.2799H14.8982V53.7372H16.1484V49.5445H18.878C20.8784 49.5445 22.3994 47.9878 22.3994 45.9122C22.3786 43.8574 20.8784 42.2799 18.878 42.2799ZM28.8172 49.7521H24.6707L26.7543 44.0234L28.8172 49.7521ZM27.3586 42.2799H26.1084L21.8994 53.6335L21.8577 53.7372H23.1912L24.2122 50.9559H29.2756L30.2966 53.7372H31.6302L27.4003 42.3214C27.3794 42.3422 27.3586 42.2799 27.3586 42.2799ZM32.8179 53.758H34.0681V42.3007H32.8179V53.758ZM39.7773 47.2821L39.694 47.2614C38.2354 46.7632 37.3394 46.4103 37.3394 45.2273C37.3394 44.0857 38.1937 43.3592 39.5065 43.3592C41.1317 43.3592 41.8402 44.5008 42.1111 45.1857L42.1527 45.2688L43.2154 44.6461L43.1946 44.5838C42.5486 43.0271 41.1734 42.0931 39.5273 42.0931C37.5061 42.0931 36.0892 43.4007 36.0892 45.2688C36.0892 47.3029 37.6937 47.8633 39.3814 48.4444L39.6315 48.5275C41.2568 49.0879 42.2569 49.4822 42.2569 50.7276C42.2569 51.9315 41.2984 52.6787 39.7773 52.6787C38.1937 52.6787 37.1311 51.9315 36.7352 50.5201L36.7143 50.4163L35.6308 51.0805L35.6517 51.1427C36.2351 52.907 37.777 53.9656 39.7773 53.9656C42.0277 53.9656 43.528 52.6579 43.528 50.7276C43.5071 48.569 41.6943 47.9463 39.7773 47.2821ZM52.1544 51.288L46.2368 42.3214L46.2159 42.2799H45.1532V53.7372H46.4034V44.7499L52.3211 53.7165L52.3419 53.758H53.4046V42.3007H52.1544V51.288ZM56.9885 48.5897H61.8227V47.3651H56.9885V43.5253H62.2186V42.3007H55.7383V53.758H62.3019V52.5334H57.0094V48.5897H56.9885ZM70.5325 45.7669C70.5325 47.0123 69.5948 48.0086 68.428 48.0086H65.2399V43.5253H68.428C69.5948 43.5253 70.5325 44.5215 70.5325 45.7669ZM69.4698 49.0464C70.845 48.5897 71.7827 47.2613 71.7827 45.7462C71.7827 43.8366 70.2824 42.2799 68.428 42.2799H63.9897V53.7372H65.2399V49.2124H68.1571L70.72 53.7372H72.1577C72.1577 53.758 69.4698 49.0464 69.4698 49.0464Z" fill="white"/>
<path d="M105.288 35.3266C104.788 34.4341 104.142 33.6246 103.371 32.9396L103.351 29.847C105.018 30.8433 106.414 32.2132 107.435 33.8529L105.288 35.3266ZM123.062 36.3851C123.062 33.1264 120.854 30.8017 117.811 30.8017H111.519V41.9478H117.811C120.874 41.9685 123.062 39.6023 123.062 36.3851ZM109.081 49.8143V28.4148H117.811C122.208 28.4148 125.5 31.8188 125.5 36.3851C125.5 40.91 122.208 44.3555 117.811 44.3555H111.519V49.8351C111.539 49.8351 109.081 49.8143 109.081 49.8143Z" fill="white"/>
<path d="M90.515 49.8561C89.9733 49.4618 89.4732 49.0259 89.0356 48.5485C87.8688 47.2824 87.0353 45.7257 86.5977 43.9614H84.0973C84.5557 46.2238 85.5767 48.2787 87.0144 49.9392C87.4312 50.4166 87.8687 50.8524 88.348 51.2676C87.9938 51.3506 87.6395 51.4129 87.2853 51.4129H79.0756V42.0726H87.2853C89.7024 42.0726 91.661 44.169 91.661 46.7427C91.6402 47.8636 91.2443 48.9636 90.515 49.8561ZM79.0548 30.8228H86.4518C86.9936 30.8228 87.5354 30.9474 88.0354 31.1757C86.181 32.8362 84.8682 35.0363 84.2015 37.5478H86.7436C87.3478 35.659 88.4105 34.04 89.8691 32.8154C90.3275 33.5419 90.5567 34.3929 90.5567 35.2439C90.5567 37.7138 88.7022 39.6649 86.431 39.6649H79.0339C79.0548 39.6649 79.0548 30.8228 79.0548 30.8228ZM104.392 51.3921C105.538 50.4373 106.497 49.2542 107.205 47.9258L105.038 46.6597C103.538 49.6901 100.287 51.7242 96.6202 51.7242C95.2033 51.7242 93.8698 51.4751 92.6821 51.0185C93.5989 49.7731 94.099 48.2579 94.0781 46.722C94.0781 43.8992 92.4737 41.6575 90.1608 40.6405C91.9111 39.5196 93.0154 37.6101 93.0154 35.2439C93.0154 33.9155 92.6404 32.6079 91.9111 31.487C93.2863 30.8228 94.8491 30.4492 96.5785 30.4492C97.0369 30.4492 97.5162 30.4907 97.9538 30.553V28.0623C97.4954 28.0208 97.0369 27.9792 96.5785 27.9792C94.1823 27.9792 91.9944 28.5812 90.14 29.6397C89.0564 28.851 87.7646 28.4359 86.431 28.4359H76.5752V53.779H87.2228C88.4313 53.779 89.619 53.4469 90.6609 52.8243C92.3903 53.696 94.3907 54.1942 96.5785 54.1942C97.6412 54.1942 98.7247 54.0489 99.7457 53.779H113.456V51.3921H104.392Z" fill="white"/>
<path d="M99.5166 49.4408V28.145H101.955V47.7803C101.955 47.7803 101.684 48.2369 101.038 48.6313C100.663 48.9011 100.246 49.1294 99.5166 49.4408Z" fill="white"/>
</svg>
