<svg width="1698" height="694" viewBox="0 0 1698 694" fill="none" xmlns="http://www.w3.org/2000/svg">
<path d="M41.7273 168.306C37.7077 166.845 39.5348 173.422 35.5152 174.518C31.4957 175.249 26.7453 177.442 29.6686 178.173C32.9573 178.903 40.2656 177.807 40.9964 176.711C42.4581 175.249 43.1889 169.037 41.7273 168.306Z" fill="#0D56F2"/>
<path d="M10.6675 177.441C5.91713 177.076 0.801341 177.441 0.0705142 178.903C-0.660313 180.365 4.45548 181.826 7.7442 181.826C11.0329 181.826 17.6104 179.634 16.1487 179.268C15.0525 178.903 10.6675 177.441 10.6675 177.441Z" fill="#0D56F2"/>
<path d="M37.342 141.997C35.515 142.362 40.2653 145.286 41.727 145.286C43.1887 145.286 46.112 140.901 42.8232 140.901C39.8999 140.901 41.3616 140.901 37.342 141.997Z" fill="#0D56F2"/>
<path d="M51.5963 108.744C51.5963 108.744 51.5963 108.744 54.1542 110.936C56.7121 113.129 60.7316 113.86 64.3858 114.225C68.0399 114.591 68.0399 112.033 65.1166 109.84C62.1933 107.282 61.4625 107.648 58.9046 107.282C56.3467 106.917 55.9813 104.359 49.7692 104.359C43.1918 104.359 43.9226 101.07 43.1918 99.6086C42.461 98.147 49.0384 98.8778 50.5001 99.2432C51.9617 99.6086 58.5392 94.4928 58.5392 94.4928C58.5392 94.4928 69.1362 90.4733 70.2324 91.2041C71.3286 91.9349 77.5407 90.4733 80.464 89.7425C83.3873 89.0116 84.8489 84.6267 84.8489 84.6267C84.8489 84.6267 88.5031 85.7229 90.6955 87.9154C92.888 90.1079 97.273 87.9154 98.3692 87.9154C99.4655 87.9154 105.677 91.9349 105.677 91.9349C105.677 91.9349 113.717 91.9349 117.005 91.5695C120.294 91.2041 128.699 91.2041 131.987 91.9349C135.276 92.3004 149.893 93.0312 151.354 93.0312C152.816 93.0312 161.22 95.9545 166.336 94.4928C171.452 93.3966 174.01 95.2237 175.106 95.5891C176.202 95.9545 177.664 95.9545 179.491 98.5124C181.683 101.07 183.511 98.8778 186.434 97.4162C189.357 95.9545 188.992 94.1274 188.992 94.1274C188.992 94.1274 188.992 94.1274 191.55 93.762C194.108 93.3966 195.569 94.4928 202.512 94.8583C209.455 95.2237 207.628 93.762 212.744 91.9349C217.494 90.4733 222.61 94.1274 224.071 93.3966C225.533 93.0312 227.726 89.7425 228.822 91.2041C229.918 92.6658 232.111 95.9545 232.111 95.9545C232.111 95.9545 237.226 91.9349 239.053 91.9349C240.515 91.9349 245.631 93.3966 248.554 93.0312C251.477 92.6658 262.44 92.6658 264.632 94.4928C267.19 96.6853 273.037 95.9545 276.326 98.147C279.614 100.339 282.903 96.6853 281.076 95.5891C279.614 94.8583 275.229 91.5695 275.229 91.5695C275.229 91.5695 269.017 84.2613 268.286 83.165C267.556 82.0688 266.094 82.0688 264.632 85.3575C263.171 88.6462 256.959 88.6462 250.016 89.0116C243.073 89.377 247.458 85.7229 239.784 85.3575C232.111 84.9921 235.034 82.0688 237.226 82.0688C239.784 82.0688 241.246 77.3184 241.977 74.3951C242.708 71.4718 245.631 71.8372 251.477 72.2026C256.959 72.568 258.786 71.4718 264.267 72.2026C270.114 72.9334 269.383 69.6447 275.229 70.0101C281.076 70.3756 278.153 71.1064 281.441 73.2989C284.73 75.4913 286.557 74.7605 291.308 76.953C295.692 79.1455 294.231 79.1455 296.058 79.5109C298.25 79.8763 304.828 78.7801 308.847 78.4146C312.867 78.0492 316.156 77.6838 318.348 79.8763C320.541 82.4342 319.81 84.9921 322.733 87.1846C325.656 89.377 321.271 79.8763 321.271 76.5876C321.271 73.2989 327.118 76.2222 330.772 76.2222C334.426 76.2222 338.446 75.1259 339.177 76.5876C339.908 78.0492 334.061 80.6071 337.715 84.2613C341.369 87.9154 343.927 89.0116 347.216 89.0116C350.505 89.0116 357.813 89.7425 354.524 94.1274C351.235 98.5124 342.831 98.147 339.908 98.147C336.984 98.147 332.234 99.6086 333.33 102.167C334.426 104.724 341.004 103.263 345.389 103.263C349.774 103.263 363.659 104.359 367.314 103.263C370.968 102.167 370.237 97.0507 366.217 95.9545C362.198 94.8583 365.486 92.3004 369.506 93.0312C373.526 93.762 377.545 91.9349 376.814 93.0312C376.083 94.1274 377.18 97.0507 377.18 100.339C377.18 103.628 378.276 105.455 381.199 104.724C384.123 103.994 384.488 103.628 387.411 103.263C390.335 102.897 388.508 95.9545 387.046 92.3004C385.584 88.6462 384.123 86.4537 384.488 84.6267C384.853 82.4342 389.238 82.0688 391.796 84.2613C394.354 86.4537 397.643 90.4733 397.643 90.4733C397.643 90.4733 402.393 93.3966 404.22 96.6853C405.682 99.974 406.413 99.2432 409.336 97.0507C412.625 94.8583 413.356 95.5891 416.279 97.4162C419.202 99.6086 417.01 103.628 417.01 104.724C417.01 105.821 421.029 104.724 421.76 102.167C422.491 99.6086 425.78 99.6086 427.972 98.8778C430.165 98.147 430.165 93.0312 430.165 93.0312C430.165 93.0312 425.049 91.9349 419.568 92.3004C414.452 92.6658 412.625 91.9349 408.605 89.0116C404.586 86.0883 407.144 84.2613 404.951 81.338C402.759 78.4146 411.529 76.953 416.644 74.3951C421.76 71.8372 427.241 73.6643 426.145 79.5109C425.049 85.7229 423.953 84.6267 430.165 83.5304C436.377 82.4342 429.799 76.953 432.723 76.5876C435.646 76.2222 442.954 75.1259 445.147 75.4913C447.704 75.8568 460.859 74.3951 464.148 74.3951C467.437 74.3951 472.553 77.3184 476.207 79.1455C479.861 81.338 489.727 83.8958 491.92 85.3575C494.477 86.4537 511.286 89.0116 513.113 89.3771C514.575 89.7425 514.575 94.4928 516.402 98.8778C517.864 102.897 522.614 99.974 524.076 99.974C525.538 99.974 531.384 102.897 532.846 104.724C534.308 106.917 546.732 108.379 546.732 108.379C546.732 108.379 543.808 112.033 542.712 113.129C541.616 114.225 538.692 115.321 536.135 116.783C533.577 118.245 531.019 116.418 527.73 114.225C524.441 112.033 518.96 110.936 517.499 111.667C516.402 112.398 517.133 114.225 517.864 115.321C518.595 116.418 524.076 118.245 527.365 120.437C530.653 122.995 529.923 125.188 530.288 128.476C530.653 131.765 526.999 127.38 522.98 126.284C518.96 125.553 518.595 129.573 518.595 129.573C518.595 129.573 513.479 129.207 510.921 129.207C508.363 129.207 510.921 129.207 506.536 125.918C502.151 122.63 502.882 128.111 500.324 126.284C497.766 124.822 495.574 122.264 494.112 122.995C493.016 123.726 488.996 119.341 486.438 119.706C483.88 120.072 474.38 118.61 471.822 119.341C469.264 120.072 467.437 120.072 465.244 120.803C463.052 121.533 462.321 114.956 463.783 113.129C464.879 110.936 467.802 110.571 473.283 112.033C478.399 113.129 479.13 112.033 480.226 109.84C481.322 107.648 482.784 105.821 488.265 103.994C494.112 102.532 487.9 101.07 486.073 100.339C484.611 99.6086 482.419 97.7816 481.323 100.339C480.226 102.897 477.303 105.455 477.303 105.455C477.303 105.455 474.014 105.455 469.629 105.09C465.244 104.724 468.533 102.897 470.36 102.167C472.553 101.436 474.745 96.3199 472.918 95.2237C470.726 94.1274 469.995 93.0312 466.341 94.1274C462.686 94.8583 465.244 91.2041 462.686 90.1079C460.129 89.0116 461.225 90.8387 461.225 92.6658C461.225 94.1274 457.571 93.762 457.571 93.762C457.571 93.762 451.724 93.0312 449.897 93.762C447.704 94.4928 444.05 96.3199 445.512 97.4162C446.608 98.5124 450.628 98.5124 452.089 102.167C453.186 105.821 446.974 106.551 445.512 106.917C444.416 107.282 439.3 109.109 439.3 109.109C439.3 109.109 434.55 108.013 430.53 108.013C426.511 108.013 425.414 108.379 426.145 110.206C426.876 111.667 429.068 110.936 430.165 110.936C431.261 110.936 431.261 113.129 434.915 112.033C438.569 111.302 437.838 109.84 441.127 113.129C444.416 116.418 447.704 116.052 452.82 118.976C457.936 121.899 452.089 125.188 449.166 125.188C446.243 125.188 446.243 122.63 444.781 120.437C443.32 117.879 436.742 120.803 436.742 120.803C436.742 120.803 431.626 123.726 428.703 123.726C425.78 123.726 423.953 123.361 427.607 120.437C431.261 117.514 423.222 117.148 423.222 113.129C423.222 109.109 421.76 117.148 421.76 119.341C421.76 121.533 418.471 119.706 411.529 120.437C404.586 121.168 405.682 123.726 396.912 129.207C388.142 135.054 385.95 136.15 386.68 141.266C387.411 146.382 389.604 144.92 393.258 145.651C396.912 146.382 395.816 152.594 398.374 152.228C401.297 151.863 403.124 149.67 408.971 152.594C414.817 155.517 417.375 156.248 424.318 157.344C431.261 158.44 435.646 160.633 439.3 159.902C442.954 159.171 445.512 160.267 445.512 163.191C445.512 166.114 448.07 166.479 447.704 170.133C447.339 173.788 452.089 166.845 452.089 166.845C452.089 166.845 454.282 173.057 452.455 173.788C450.993 174.518 452.82 178.173 455.013 177.807C457.205 177.442 459.763 178.903 462.321 177.076C464.879 174.884 461.225 169.037 461.225 166.479C461.225 163.921 458.667 162.825 457.571 160.267C456.474 157.709 460.859 157.344 462.321 159.902C463.783 162.46 466.706 160.267 469.629 158.44C472.553 156.248 472.553 152.594 472.553 152.594C472.553 152.594 467.802 146.016 464.148 144.554C460.494 143.093 461.956 142.362 465.61 141.631C469.264 140.9 465.61 139.439 466.341 135.054C467.071 130.669 467.071 127.745 469.264 127.745C471.456 127.745 478.765 126.649 484.611 127.015C490.823 127.38 493.381 131.765 497.766 132.13C501.786 132.496 508.363 133.227 509.459 135.419C510.556 137.612 505.074 137.977 507.998 141.266C510.921 144.554 511.286 144.189 514.21 145.285C517.133 146.382 520.422 145.651 524.076 140.9C527.73 136.15 529.192 135.785 530.653 136.515C531.75 137.246 539.423 146.382 541.616 148.209C543.808 150.401 547.828 154.786 548.193 156.613C548.559 158.806 554.405 158.806 555.867 158.806C557.329 158.806 563.541 163.191 564.271 165.748C565.002 168.306 566.829 169.037 571.945 170.133C577.061 171.23 571.945 175.98 570.849 178.173C569.753 180.73 568.656 181.461 567.195 184.385C565.733 187.308 567.195 184.385 569.387 185.481C571.58 186.577 572.31 188.404 575.599 187.673C578.888 186.942 580.35 187.673 581.811 190.231C582.907 192.789 584.735 194.616 585.831 196.809C586.927 199.001 585.831 201.924 584.369 200.097C582.907 197.905 577.426 199.367 577.426 199.367C577.426 199.367 574.868 201.924 574.138 200.463C573.407 199.367 571.58 197.539 569.022 198.27C566.098 199.001 563.175 198.27 560.252 198.636C556.963 199.001 555.867 197.174 557.694 195.347C559.886 193.885 560.252 187.673 564.271 185.115C568.291 182.557 567.195 178.903 564.271 178.903C561.348 178.903 560.252 182.557 558.425 183.288C556.963 184.019 553.674 184.019 550.751 186.212C547.828 188.404 540.885 187.308 543.808 188.404C546.732 189.135 539.789 192.424 537.231 192.424C534.673 192.424 535.769 187.308 535.769 185.115C535.769 182.923 532.48 186.212 532.48 186.212C532.48 186.212 525.903 182.557 523.711 185.115C521.153 187.673 517.498 188.77 514.941 191.327C512.017 193.885 505.44 197.905 505.44 197.905C505.44 197.905 507.998 196.809 512.748 195.347C517.498 194.251 517.133 194.616 521.153 192.424C525.172 190.231 529.192 189.5 532.115 193.154C535.038 196.809 531.019 199.001 531.019 199.001C531.019 199.001 532.48 201.924 534.307 202.655C535.769 203.386 536.5 201.924 539.058 200.097C541.981 198.636 540.52 203.386 541.616 204.848C542.347 206.309 545.27 206.309 546.732 204.482C548.193 202.29 549.655 200.828 550.751 201.924C551.847 203.021 553.309 205.944 554.405 208.867C555.501 211.791 546.001 212.521 544.174 212.887C542.712 213.252 534.673 215.079 533.577 215.445C532.48 215.81 528.461 219.464 525.172 219.464C521.883 219.464 522.249 214.714 521.883 211.791C521.518 208.867 517.498 212.156 517.133 213.252C516.768 214.348 513.114 213.983 510.19 214.348C507.267 214.714 502.517 217.637 502.517 220.926C502.517 224.215 506.171 225.676 505.074 227.503C503.978 228.965 496.67 230.427 493.747 229.696C490.823 228.965 486.804 230.792 487.9 232.619C488.996 234.081 488.265 236.639 485.342 236.273C482.419 235.908 482.053 238.831 483.15 240.658C484.246 242.851 479.495 246.87 478.399 245.043C477.303 243.582 474.745 242.485 474.745 245.043C474.745 247.601 475.476 249.428 478.034 252.717C480.592 256.006 472.918 257.833 469.995 260.391C467.071 262.948 457.571 270.988 453.551 272.449C449.532 273.911 449.532 279.392 451.359 281.219C453.551 283.412 455.744 291.816 457.205 294.739C458.301 297.663 456.84 305.702 453.186 305.336C449.532 304.971 451.724 300.221 448.07 298.759C444.416 297.663 442.223 290.354 441.492 285.239C440.762 280.488 440.031 283.046 437.473 284.873C434.915 286.335 432.723 281.585 431.261 280.488C430.165 279.392 423.222 281.219 418.471 280.854C413.721 280.488 411.894 283.046 411.894 284.142C411.894 285.239 411.163 288.893 406.778 286.7C402.393 284.142 401.662 284.142 396.912 284.142C392.527 284.142 388.508 283.777 387.411 285.239C386.68 286.7 382.295 290.354 379.372 291.451C376.449 292.182 371.333 296.201 373.526 297.297C376.083 298.028 376.083 303.875 374.256 307.163C372.795 310.452 373.16 315.933 373.891 321.78C374.622 327.627 379.738 331.281 384.123 334.935C388.507 338.589 390.335 339.685 394.72 336.397C399.104 333.108 400.932 335.3 402.028 335.666C403.124 336.031 406.413 333.473 405.317 329.819C404.22 326.165 406.778 322.876 410.432 323.242C414.086 323.607 419.202 322.145 422.126 322.511C425.049 322.876 426.511 330.55 422.126 333.839C417.741 337.127 419.933 341.878 419.202 345.532C418.471 349.186 414.817 349.917 419.202 349.917C423.587 349.917 422.491 350.648 425.414 351.013C428.338 351.379 431.261 348.455 433.819 348.09C436.742 347.724 444.05 354.302 442.589 357.591C441.492 360.879 440.031 366.36 440.396 371.842C440.762 376.957 442.589 377.688 443.32 379.15C444.05 380.612 447.339 384.266 450.993 382.804C454.647 381.342 458.301 379.881 459.398 378.419C460.494 376.957 468.168 381.342 467.437 382.439C466.706 383.535 470.36 384.997 472.553 383.535C475.111 382.439 476.207 380.246 478.765 376.957C481.323 373.669 485.342 370.745 487.169 370.38C489.362 370.015 494.112 365.264 497.401 365.995C500.689 366.726 496.304 370.745 495.939 373.303C495.574 375.861 495.939 382.804 497.401 383.169C498.862 383.535 498.132 378.419 500.324 374.765C502.516 371.111 506.536 368.918 508.363 368.918C510.556 368.918 512.017 377.323 514.941 375.13C517.864 372.572 523.345 372.938 524.807 375.496C525.903 378.054 527.365 379.15 527.365 379.15C527.365 379.15 529.557 377.688 529.557 375.496C529.557 373.303 536.135 371.476 540.154 374.034C544.174 376.592 542.712 377.323 544.539 377.688C546.732 378.054 548.559 372.573 549.655 371.842C550.751 371.476 549.655 378.419 546.732 382.073C543.808 385.727 549.289 384.631 549.289 384.631C549.289 384.631 549.289 384.631 550.386 385.727C551.482 386.824 555.501 384.631 557.329 386.824C558.79 389.382 561.713 390.112 564.271 394.497C566.829 398.882 570.483 397.786 575.234 397.055C579.984 396.324 586.196 399.613 590.947 404.729C595.697 409.845 594.966 414.23 598.255 414.23C601.544 414.23 602.274 418.615 602.274 420.442C602.274 421.903 594.966 425.557 590.947 426.654C586.927 427.385 586.927 431.404 593.504 430.308C600.082 429.212 597.159 426.654 601.178 425.557C605.198 424.461 609.217 427.019 605.563 432.135C601.909 436.885 594.601 437.251 601.178 438.347C607.756 439.078 604.101 437.616 607.756 432.5C611.41 427.75 611.044 429.212 613.602 429.212C616.16 429.212 621.276 430.308 623.468 432.135C625.661 433.597 630.777 436.154 634.065 438.347C637.354 440.539 641.374 439.443 643.932 438.712C646.489 437.982 653.432 441.27 655.625 444.559C658.183 447.848 664.029 448.213 666.953 449.309C669.876 450.406 674.261 455.521 674.626 459.541C674.992 463.56 670.241 471.965 669.876 474.157C669.51 476.35 662.933 483.658 657.086 488.409C650.874 493.159 654.529 499.006 654.894 501.198C655.259 503.756 650.874 512.526 651.971 514.718C653.067 516.911 650.509 521.296 647.951 524.219C645.393 527.142 643.932 532.258 642.104 534.816C640.643 537.374 635.162 536.278 630.411 537.739C625.661 538.836 623.103 540.297 623.103 540.297C623.103 540.297 614.698 544.317 609.583 547.606C604.832 550.894 611.044 556.375 608.852 561.126C606.294 565.511 604.101 565.145 601.544 570.627C598.986 575.742 597.889 571.357 595.697 572.819C593.504 573.915 592.408 577.204 592.043 580.493C591.677 583.781 587.658 587.07 582.177 591.821C577.061 596.571 573.772 595.84 567.926 594.378C562.079 592.917 563.175 579.031 562.079 580.858C561.348 583.051 561.713 590.359 562.444 591.455C563.175 592.551 565.733 597.302 567.56 598.398C569.753 599.494 569.022 601.687 567.56 603.514C566.098 605.706 561.348 613.015 559.886 613.38C558.425 613.745 545.635 615.572 543.443 614.111C540.885 613.015 539.789 617.034 540.154 619.227C540.52 621.784 542.712 624.342 537.962 623.612C533.577 622.881 527.365 619.957 527.365 622.15C527.365 624.342 528.461 628.727 531.019 628.727C533.577 628.727 535.769 627.266 534.673 629.824C533.577 632.747 530.288 634.939 528.461 636.401C526.999 637.497 524.807 641.517 520.787 644.44C516.768 647.363 516.768 648.825 517.499 650.287C518.229 651.383 524.441 650.652 525.538 651.383C526.634 652.114 524.441 657.96 522.614 659.057C521.153 660.153 514.21 666 511.286 667.461C508.363 668.923 508.363 674.039 509.094 676.231C509.825 678.789 516.402 684.636 520.056 686.097C523.711 687.194 531.384 686.828 530.653 688.29C529.923 689.386 520.787 690.848 519.691 691.213C518.595 691.578 512.017 693.406 508.729 693.406C505.44 693.406 499.228 690.117 498.132 690.117C497.035 690.117 498.862 688.655 502.882 685.366C506.902 682.078 501.42 678.424 500.324 682.809C499.593 687.193 497.766 688.655 495.939 688.655C493.747 688.655 491.554 685.732 490.092 684.636C488.996 683.539 483.515 682.078 484.246 677.327C484.977 672.577 481.688 672.942 479.495 670.75C476.938 668.557 482.784 667.096 482.053 664.903C481.322 662.711 477.668 664.172 477.303 661.249C476.938 658.326 480.592 654.306 480.957 653.21C481.323 652.114 478.399 649.556 478.034 647.363C477.668 645.171 479.495 643.344 482.419 640.055C485.342 636.766 487.169 632.747 487.169 631.651C487.169 630.554 484.977 625.804 484.977 622.881C484.977 619.592 487.169 618.496 487.9 614.111C488.631 609.726 484.977 611.188 484.977 607.533C484.977 603.879 488.996 604.975 488.265 601.321C487.535 597.667 490.458 595.109 491.554 592.917C492.65 590.359 494.112 586.339 495.574 583.416C497.035 580.493 494.112 574.281 494.112 572.819C494.112 571.723 499.228 569.896 497.035 567.703C494.477 565.145 497.766 563.318 500.324 561.126C502.882 558.933 499.959 553.452 501.055 546.144C502.151 538.836 503.613 526.412 503.613 524.95C503.613 523.854 503.978 518.738 502.151 515.449C499.959 512.16 497.766 509.603 494.843 508.506C491.919 507.41 488.265 503.756 486.438 503.391C484.246 503.025 474.745 499.371 474.745 493.524C474.745 487.678 467.802 483.293 467.071 479.273C466.341 475.254 460.129 466.484 459.763 462.099C459.398 458.079 450.993 456.983 449.532 452.233C448.435 447.848 453.551 444.559 454.282 441.636C455.013 438.712 451.359 432.866 450.993 430.673C450.628 428.481 457.205 423 459.398 421.903C461.956 420.807 463.783 415.326 465.61 415.326C467.071 415.326 466.706 410.941 468.533 406.556C469.995 402.171 467.802 395.959 466.341 395.228C465.244 394.497 463.783 389.016 461.956 387.554C459.763 386.093 455.744 386.824 455.744 386.824C455.744 386.824 456.474 390.478 452.82 392.67C449.166 394.863 448.435 392.305 446.974 391.209C445.877 390.112 441.127 389.747 439.3 387.554C437.107 385.362 434.184 382.804 431.626 381.342C429.068 380.246 425.414 378.785 425.78 374.034C426.145 369.284 420.664 366.36 418.837 365.63C417.375 364.899 414.086 362.706 411.894 364.168C409.701 365.264 406.047 361.61 403.489 361.975C400.566 362.341 395.085 357.225 392.892 355.033C390.7 352.84 389.238 350.282 385.584 350.282C381.93 350.282 381.565 351.379 379.007 354.302C376.449 357.225 372.795 352.109 371.698 351.013C370.602 349.917 367.314 349.551 362.929 349.551C358.544 349.551 355.255 343.339 353.793 342.609C352.332 341.878 341.004 336.397 338.08 334.935C335.157 333.473 332.234 327.261 333.695 325.434C334.792 323.972 331.503 318.491 331.503 318.491C331.503 318.491 325.656 311.914 323.829 311.914C321.637 311.914 315.425 300.586 311.771 297.297C308.117 294.009 299.712 286.7 297.885 283.046C296.423 279.392 295.692 273.545 291.673 276.469C287.653 279.392 290.942 282.315 294.962 285.239C298.981 288.527 298.25 291.816 303.732 296.201C309.578 300.586 307.02 304.971 309.578 307.163C312.136 309.356 320.541 314.106 316.886 317.395C313.232 320.684 309.578 313.376 308.117 313.01C306.655 312.645 303.001 311.914 303.366 309.356C303.732 306.798 300.077 304.971 297.154 301.317C294.231 297.663 293.135 299.855 289.48 299.855C285.826 299.855 289.115 295.47 290.942 293.278C293.135 291.085 288.75 288.527 286.557 287.431C283.999 286.7 280.711 277.2 277.787 271.718C274.499 265.872 271.941 263.314 268.286 263.679C264.632 264.045 263.171 259.66 260.613 258.198C258.055 256.736 254.401 248.697 250.381 244.678C246.362 240.658 242.708 232.985 243.073 228.6C243.438 224.215 244.535 212.887 244.535 209.963C244.535 207.04 242.342 200.097 242.342 199.001C242.342 197.905 240.15 195.712 238.688 195.347C237.226 194.982 232.476 189.135 228.822 189.135C225.168 189.135 222.61 185.115 224.071 182.192C225.168 179.269 220.783 174.518 218.956 174.518C216.763 174.518 213.84 169.403 212.378 166.479C211.282 163.556 207.993 163.556 208.724 165.383C209.455 166.845 208.359 169.768 210.186 170.499C212.378 171.23 213.84 177.807 212.378 178.538C210.917 179.269 207.262 175.98 202.877 174.153C198.858 171.96 200.32 163.921 200.32 162.094C200.32 160.267 194.473 158.075 192.28 158.075C189.723 158.075 187.53 158.44 187.165 153.324C186.799 148.209 179.491 145.285 176.933 145.285C174.375 145.285 161.586 140.17 157.566 140.17C153.547 140.17 146.604 136.515 144.046 137.977C141.488 139.439 137.103 135.054 134.545 135.054C131.987 135.054 131.987 136.515 127.602 139.439C123.217 142.362 121.39 140.535 119.198 142.727C116.64 144.92 110.793 146.747 112.62 141.997C114.813 137.246 114.813 136.15 111.524 137.612C108.235 138.708 107.505 141.997 107.505 144.189C107.505 146.382 101.658 149.305 101.658 149.305C101.658 149.305 106.774 149.67 108.966 149.305C111.159 148.939 109.332 153.69 107.505 155.151C105.312 156.248 102.754 159.536 99.4655 158.806C96.1768 158.075 95.8113 155.151 93.9843 154.786C91.7918 154.421 87.4068 157.709 80.0986 161.364C72.7903 165.018 73.8865 162.094 71.3286 163.556C68.4053 164.652 58.1738 168.306 54.885 168.672C51.2309 169.037 51.9617 164.287 54.1542 164.287C56.3467 164.287 64.0204 160.633 65.8474 159.536C68.0399 158.44 76.8098 155.151 79.3677 153.69C81.9256 152.594 85.9452 150.401 84.1181 147.843C82.6565 145.285 77.1753 148.939 77.1753 148.939C77.1753 148.939 73.1557 145.285 72.0595 144.554C70.9632 143.824 68.4053 147.843 68.4053 147.843C68.4053 147.843 62.1933 147.843 63.2895 143.458C64.3858 139.073 60.3662 139.073 59.6354 140.9C58.9046 143.093 51.9617 146.016 51.5963 144.189C51.2309 141.997 45.0189 137.977 43.5572 134.688C42.0956 131.4 45.0189 131.034 48.673 128.111C52.3271 125.188 57.4429 124.457 62.1933 124.822C66.5783 125.188 69.5016 120.072 68.0399 119.706C66.5783 119.341 63.655 118.976 61.0971 120.803C58.5392 122.995 52.6925 122.264 52.6925 122.264C52.6925 122.264 43.9226 122.264 40.2685 119.706C36.6144 117.148 34.4219 113.494 34.4219 113.494C34.4219 113.494 41.7301 110.571 47.2113 110.206L51.5963 108.744ZM422.856 229.696C426.876 230.061 426.876 224.58 426.51 222.753C426.145 221.291 426.145 214.348 427.607 212.887C429.068 211.791 431.261 208.136 435.646 207.771C440.031 207.406 442.954 210.694 442.589 214.348C442.223 218.003 443.32 221.657 445.147 221.657C446.608 221.657 451.724 218.733 449.897 216.541C448.435 213.983 450.993 205.944 450.993 208.867C450.993 211.791 454.282 213.618 456.109 213.252C458.301 212.887 453.917 205.579 451.359 205.213C448.435 204.848 442.954 204.848 441.492 205.213C440.396 205.579 433.453 203.021 430.165 203.751C426.876 204.117 422.126 205.213 420.298 208.502C418.837 211.791 420.298 218.003 419.933 220.195C420.298 222.388 419.202 229.33 422.856 229.696ZM445.512 229.696C446.608 231.523 450.628 230.061 453.186 227.503C455.744 224.945 460.859 224.215 462.686 222.388C464.148 220.195 465.61 220.926 469.629 219.099C473.649 217.637 476.938 216.906 475.476 215.079C474.014 212.887 465.244 215.079 464.148 214.348C463.052 213.618 454.282 223.118 454.282 223.118C454.282 223.118 446.974 226.042 446.608 227.138C446.243 228.6 444.416 227.138 445.512 229.696ZM403.489 198.636C403.489 200.828 407.509 201.194 410.067 199.732C412.625 198.636 416.279 197.539 417.741 197.174C419.202 196.809 418.471 199.367 422.126 199.367C425.78 199.367 430.165 200.463 431.626 200.097C432.723 199.732 436.377 194.982 433.819 194.251C430.895 193.885 426.511 190.962 423.953 188.404C421.395 185.846 415.914 191.693 410.432 193.52C405.317 196.078 403.489 195.347 403.489 198.636ZM237.226 185.115C233.938 184.019 238.323 189.866 240.515 191.327C242.708 192.424 246.727 192.424 247.092 194.616C247.458 196.809 248.554 201.559 250.747 201.194C252.939 200.828 252.939 196.443 251.112 194.616C249.65 193.154 243.438 188.039 242.342 188.039C241.246 188.039 238.688 185.481 237.226 185.115Z" fill="#0D56F2"/>
<path d="M437.472 129.574C436.376 130.67 442.222 132.497 443.319 131.035C444.78 129.208 440.395 126.285 437.472 129.574Z" fill="#0D56F2"/>
<path d="M453.185 131.766C448.8 132.862 452.82 136.151 455.743 135.055C458.301 133.958 457.205 130.67 453.185 131.766Z" fill="#0D56F2"/>
<path d="M251.476 65.9917C251.111 67.4534 254.034 67.4534 257.688 67.4534C261.342 67.4534 266.824 67.4534 268.651 66.7226C270.112 65.9917 278.517 64.1647 278.151 66.3571C277.786 68.915 281.44 72.5692 283.267 72.2038C285.094 71.8383 289.114 68.1842 290.941 69.6459C292.768 71.1075 293.133 74.3962 294.96 75.1271C296.787 75.8579 301.903 75.8579 304.461 75.1271C307.019 74.3962 313.596 74.3962 316.52 74.7617C319.443 75.4925 328.213 76.9541 328.944 75.4925C329.675 74.0308 332.233 73.6654 332.598 71.8383C332.963 70.3767 334.06 65.2609 334.06 65.2609C334.06 65.2609 332.598 62.3376 329.675 63.7993C327.117 65.2609 326.02 65.9917 323.828 65.2609C321.27 64.8955 321.27 60.5105 317.251 61.2414C312.866 61.9722 312.135 64.5301 310.673 65.6263C309.211 66.7226 306.288 67.4534 305.192 67.088C304.096 66.7226 297.884 63.0684 297.884 63.0684C297.884 63.0684 285.094 62.703 284.363 60.8759C283.998 59.4143 281.806 56.491 275.593 57.2218C269.747 57.5872 259.515 61.2414 257.688 61.2414C255.861 60.5105 259.515 63.7993 257.323 63.7993C255.13 63.7993 252.572 63.4338 251.476 65.9917Z" fill="#0D56F2"/>
<path d="M297.516 54.6638C294.227 55.7601 294.958 58.6834 297.15 58.6834C299.343 58.6834 304.824 56.8563 306.286 58.318C307.747 59.7796 312.132 58.6834 311.767 57.2217C311.402 55.7601 313.229 50.2789 310.305 50.2789C307.017 49.9135 302.266 53.2022 297.516 54.6638Z" fill="#0D56F2"/>
<path d="M334.06 51.3743C333.695 53.2014 336.253 55.0284 339.541 55.0284C342.83 55.0284 349.773 53.5668 350.504 54.663C350.869 56.1247 350.138 57.2209 354.158 57.5863C357.812 57.9517 359.639 58.6826 361.832 58.6826C364.024 58.6826 363.293 55.0284 361.466 52.8359C359.639 50.2781 360.005 50.6435 355.254 49.1818C350.504 47.7202 345.388 47.7202 342.465 48.0856C338.445 48.451 334.791 47.3548 334.06 51.3743Z" fill="#0D56F2"/>
<path d="M339.537 63.7977C337.345 65.6248 339.537 71.106 338.806 71.4714C338.076 71.8368 339.172 74.3947 341.364 74.0293C343.557 73.6639 344.653 68.1827 346.115 68.1827C347.576 68.1827 355.981 66.3556 357.443 69.2789C358.904 72.2023 358.904 70.7406 362.558 71.106C366.213 71.4714 369.136 67.4519 369.501 65.9902C369.867 64.5286 367.674 61.9707 362.558 62.3361C357.443 63.0669 341.73 61.9707 339.537 63.7977Z" fill="#0D56F2"/>
<path d="M349.405 78.0485C347.578 79.1447 348.674 83.1642 351.597 83.5297C354.521 83.8951 359.636 81.7026 360.367 83.1642C360.733 84.6259 362.925 91.9342 367.676 89.7417C372.426 87.1838 372.426 84.9913 373.522 84.9913C374.984 84.6259 373.157 78.7793 370.964 77.3176C368.772 75.856 361.829 76.9522 360.002 77.683C358.175 78.4139 352.328 76.2214 349.405 78.0485Z" fill="#0D56F2"/>
<path d="M380.099 80.6081C380.465 81.339 382.657 82.8006 385.946 82.0698C389.6 81.7044 394.716 80.9735 396.908 80.6081C399.466 80.2427 399.832 76.2232 397.274 75.8577C394.716 75.4923 392.524 73.2998 389.966 74.0307C387.408 75.1269 379.369 78.7811 380.099 80.6081Z" fill="#0D56F2"/>
<path d="M379.367 69.2797C378.271 72.203 390.33 73.6646 388.868 70.3759C387.406 67.0872 380.464 65.9909 379.367 69.2797Z" fill="#0D56F2"/>
<path d="M381.198 55.3936C377.909 54.6627 372.063 53.5665 372.063 52.8357C372.063 52.1048 370.601 56.4898 373.524 57.9514C376.448 59.4131 381.198 61.6056 384.852 63.0672C388.506 64.5289 395.084 64.5289 397.276 67.4522C399.469 70.0101 406.777 72.2026 406.777 72.2026L415.547 72.9334C415.547 72.9334 421.394 71.4717 427.606 72.2026C433.818 72.568 442.953 73.6642 448.069 73.2988C453.185 72.9334 453.915 71.4717 454.646 70.3755C455.012 69.2793 445.145 67.0868 442.588 67.4522C440.03 67.8176 426.509 67.8176 422.49 67.4522C418.47 67.0868 413.354 67.0868 410.066 67.4522C406.777 67.8176 404.585 65.2597 402.027 63.7981C399.469 62.3364 394.353 57.9514 391.064 57.586C387.41 56.8552 388.141 56.8552 381.198 55.3936Z" fill="#0D56F2"/>
<path d="M727.976 111.667C726.88 113.495 724.687 113.495 726.88 117.514C729.072 121.168 730.534 123.361 732.726 123.361C734.553 122.995 741.131 122.995 741.861 124.822C742.592 127.015 744.785 128.842 749.535 127.38C754.286 125.919 757.94 125.188 759.036 123.726C760.132 122.264 767.44 121.899 767.44 121.899C767.44 121.899 773.287 117.149 771.095 115.322C768.902 113.495 763.786 112.033 761.228 111.667C758.67 111.302 756.478 113.495 750.997 113.495C745.516 113.495 742.227 115.687 740.034 113.495C737.477 111.302 728.707 110.206 727.976 111.667Z" fill="#0D56F2"/>
<path d="M490.453 57.9516C493.742 60.1441 495.569 58.6824 499.588 59.4133C503.608 60.1441 506.897 65.9907 509.089 67.087C511.282 67.8178 514.205 67.087 515.667 65.6253C517.128 64.1636 518.955 58.317 518.955 58.317C518.955 58.317 518.955 63.7982 522.244 64.8945C525.533 65.9907 533.572 64.1636 535.764 64.5291C537.957 64.8945 550.746 66.3561 554.035 68.1832C557.689 69.6449 566.094 70.7411 568.651 74.3952C571.209 78.0494 571.209 90.108 572.671 91.5697C574.133 93.0313 578.518 87.1847 579.614 85.7231C580.71 84.2614 586.191 85.3576 588.384 87.1847C590.211 89.0118 594.596 93.7622 594.23 95.5892C593.865 97.4163 593.134 100.34 591.672 99.2434C590.211 98.1471 587.287 98.5125 588.384 96.32C589.48 94.1276 589.845 89.7426 588.018 89.7426C585.826 89.7426 583.999 89.7426 583.999 89.7426C583.999 89.7426 579.979 88.6464 577.421 92.6659C574.863 96.6855 577.056 100.705 578.883 100.705C580.71 100.705 585.095 100.705 585.095 101.801C585.095 102.897 580.345 106.186 580.71 108.013C581.075 109.84 584.364 116.418 585.46 117.879C586.557 119.341 592.038 120.437 593.865 120.803C595.327 121.168 590.211 121.168 591.307 123.361C592.769 125.188 594.961 129.938 597.884 131.034C600.808 132.131 609.212 136.881 610.308 139.073C611.405 141.266 617.982 137.612 619.078 137.246C620.54 136.881 620.175 143.093 623.829 143.093C627.483 143.458 628.945 142.728 632.233 140.17C635.522 137.612 634.791 134.323 634.791 132.131C635.157 129.573 634.791 127.746 638.445 128.476C642.099 129.207 643.927 128.111 643.561 125.188C643.196 122.63 640.272 119.341 646.119 118.245C651.966 117.514 654.889 113.86 658.178 113.86C661.832 113.86 671.333 115.322 672.429 113.86C673.525 112.398 678.275 106.186 681.199 106.186C684.122 105.821 692.161 105.455 699.104 104.359C706.047 103.263 713.72 99.2433 716.278 99.6088C718.836 99.9742 724.683 99.9742 722.856 98.1471C721.029 96.6855 718.105 92.6659 714.086 92.6659C710.066 92.6659 713.72 86.8193 714.817 86.8193C715.913 86.8193 721.394 87.5501 721.029 90.4734C720.663 93.0313 722.49 96.6855 727.972 95.5892C733.453 94.493 732.722 90.4734 731.626 89.3772C730.529 88.2809 729.799 85.7231 728.702 83.5306C727.606 81.7035 727.972 79.1456 733.453 78.7802C739.299 78.4148 746.973 80.9727 746.608 76.5877C746.242 72.2028 746.608 67.8178 748.069 65.2599C749.531 62.702 753.185 61.2403 751.358 60.5095C749.531 59.7787 746.973 61.6057 745.146 57.5862C743.319 53.5666 746.608 50.6433 748.8 48.8163C750.993 47.3546 762.32 36.7576 768.532 34.9306C774.744 33.4689 779.129 27.2569 774.744 25.7952C770.359 24.3336 761.955 22.1411 756.108 26.1606C750.262 30.5456 747.338 34.5651 740.761 33.1035C734.184 31.6418 734.914 33.4689 734.914 26.1606C734.549 18.487 727.606 4.96666 721.76 6.0629C715.913 6.79373 715.913 6.79373 715.913 6.79373C715.913 6.79373 667 -7.99993 613.232 8.98621C609.943 12.2749 607.02 20.314 604.096 18.1216C601.173 15.9291 600.442 10.4479 596.788 12.6403C593.134 14.8328 596.423 20.314 593.134 23.9682C589.845 27.6223 580.71 27.2569 578.152 25.7952C575.594 24.3336 572.671 23.2373 562.074 23.9682C551.112 24.699 539.418 27.6223 541.976 30.911C544.534 34.1997 537.226 36.0268 535.399 34.5651C533.572 33.1035 524.802 36.3922 525.533 39.6809C525.898 42.9697 524.071 46.6238 519.686 45.893C514.936 45.1621 512.012 47.72 511.647 50.6433C511.282 53.2012 501.05 55.3937 500.319 55.3937C498.492 55.0283 485.337 54.6629 490.453 57.9516Z" fill="#0D56F2"/>
<path d="M434.914 320.318C434.548 324.338 438.568 323.241 443.318 323.241C448.069 323.241 456.839 322.511 458.3 324.338C459.762 326.53 467.07 329.453 469.263 331.28C471.455 332.742 477.667 333.473 478.032 331.646C478.398 330.184 473.648 325.434 470.724 325.799C467.801 326.165 461.954 322.876 458.666 319.953C455.377 317.029 449.165 317.029 446.972 317.029C444.414 317.76 434.914 320.318 434.914 320.318Z" fill="#0D56F2"/>
<path d="M464.144 308.992C460.49 309.357 461.221 313.742 465.606 313.011C470.356 312.28 467.798 308.626 464.144 308.992Z" fill="#0D56F2"/>
<path d="M466.336 342.609C462.682 343.34 463.412 350.648 467.797 349.186C472.548 348.09 469.99 341.878 466.336 342.609Z" fill="#0D56F2"/>
<path d="M519.691 338.224C516.037 338.955 516.768 346.263 521.153 344.802C525.903 343.705 523.345 337.493 519.691 338.224Z" fill="#0D56F2"/>
<path d="M483.148 340.051C483.148 340.051 487.533 340.782 490.457 340.782C493.38 340.782 494.842 342.244 497.4 343.705C499.958 344.802 504.342 342.244 505.804 342.244C507.266 342.244 509.458 346.994 509.824 341.878C510.189 336.763 505.073 334.205 501.785 333.474C498.496 332.743 494.842 333.474 492.284 333.839C489.726 333.839 483.148 340.051 483.148 340.051Z" fill="#0D56F2"/>
<path d="M822.615 260.392C824.076 259.661 830.654 257.468 834.308 256.007C837.962 254.545 849.655 250.16 851.482 250.16C852.944 250.16 873.407 250.526 876.33 249.429C879.254 248.333 886.562 246.141 889.851 255.276C893.139 264.046 889.851 261.123 886.562 262.584C883.273 264.046 887.658 267.7 889.485 267.7C890.947 267.7 896.793 272.816 899.717 272.816C902.64 272.816 909.583 275.739 909.583 275.739C909.583 275.739 916.526 280.855 920.18 280.855C923.834 280.855 926.757 283.778 930.777 279.759C934.796 275.739 939.912 270.989 944.297 271.72C948.317 272.45 952.702 275.739 958.183 275.739C963.299 275.739 973.165 275.008 974.992 276.835C976.454 279.028 964.03 285.605 964.76 287.432C965.491 288.894 967.318 288.529 971.338 283.778C975.357 279.028 981.569 279.028 986.32 277.566C991.07 276.47 993.628 284.144 994.359 286.336C995.09 288.894 998.744 293.279 1001.67 298.395C1004.59 303.511 1007.51 310.819 1010.44 316.665C1013.73 322.512 1015.55 330.917 1018.84 334.571C1022.13 338.225 1025.05 344.437 1026.88 349.187C1029.07 353.938 1033.82 359.053 1035.29 359.419C1036.75 359.784 1043.69 369.285 1044.06 371.478C1044.42 374.035 1041.5 379.151 1048.07 379.517C1054.65 379.882 1060.13 376.593 1062.33 375.862C1064.52 375.132 1080.23 368.92 1082.06 371.478C1084.25 374.035 1079.13 384.632 1078.77 387.19C1078.4 390.114 1066.71 403.634 1066.35 407.288C1065.98 410.942 1059.04 417.52 1054.65 418.25C1050.27 418.981 1040.77 430.309 1037.48 433.963C1034.19 437.617 1029.07 445.656 1026.52 446.387C1023.96 447.118 1023.23 455.888 1024.32 457.35C1025.42 458.811 1024.69 468.678 1028.34 471.966C1032 475.255 1033.09 477.813 1031.63 480.371C1030.17 483.294 1032.36 489.872 1031.63 494.987C1030.9 500.103 1026.52 507.046 1024.69 508.873C1023.23 510.335 1012.99 513.258 1009.71 517.278C1006.42 521.297 1003.49 524.951 1004.59 527.144C1005.32 529.336 1008.61 539.202 1008.24 541.76C1007.88 544.318 1000.21 547.607 996.917 549.069C993.628 550.53 995.455 553.819 996.186 557.108C996.917 560.396 990.339 565.512 987.781 568.435C984.858 571.359 977.184 580.86 972.069 584.514C966.953 588.168 960.741 591.091 955.625 590.726C950.509 590.36 940.278 590.726 938.085 592.918C935.893 595.111 933.335 594.38 929.315 592.553C925.296 590.36 924.93 587.802 924.565 583.052C924.199 578.667 923.103 575.744 923.103 575.744C923.103 575.744 922.007 568.801 918.353 565.512C914.699 562.223 913.602 558.569 911.41 556.011C909.217 553.453 910.679 548.338 910.314 543.953C909.948 539.568 907.39 532.625 905.563 529.702C903.371 526.778 899.351 519.105 897.89 516.181C896.428 513.258 894.236 507.777 894.601 499.738C894.966 491.699 900.813 487.314 904.102 484.756C907.39 482.198 904.467 478.909 901.544 474.159C898.621 469.408 901.909 461.004 899.351 458.446C896.793 455.523 888.754 440.541 884.369 437.983C879.984 435.425 879.619 434.694 881.812 429.213C884.369 423.366 881.811 417.885 885.831 414.231C889.851 410.577 888.024 408.019 883.273 405.826C878.888 403.268 880.35 402.172 876.696 405.096C873.042 408.019 868.291 409.481 865.368 406.557C862.445 403.634 863.175 399.249 858.06 395.96C852.944 392.672 846.001 397.056 843.808 398.153C841.616 398.884 836.135 402.538 830.288 403.269C824.807 403.999 820.422 402.903 814.941 402.903C809.46 402.903 804.344 403.268 803.613 406.192C802.882 409.115 801.421 410.577 797.766 407.653C794.112 404.73 786.804 398.153 786.804 398.153C786.804 398.153 776.572 390.114 774.745 385.363C772.553 380.613 768.899 377.324 761.225 373.67C753.551 370.016 757.936 365.996 757.206 361.977C756.475 357.957 752.455 356.13 754.282 355.765C756.475 355.399 755.744 352.476 760.494 346.995C764.879 341.148 761.956 335.302 761.225 332.013C760.494 328.724 756.475 323.974 760.494 318.493C764.514 313.377 768.533 302.049 771.822 298.76C775.111 295.472 783.15 291.087 787.535 288.894C791.92 286.702 788.997 281.586 791.554 275.374C794.112 269.162 797.766 266.604 798.863 266.604C799.959 266.604 804.709 262.219 809.46 259.661C812.383 258.93 821.153 261.488 822.615 260.392ZM999.84 427.02C998.744 425.193 991.801 425.924 990.339 427.751C989.243 429.944 987.781 439.079 991.435 439.81C995.455 440.906 1002.03 430.309 999.84 427.02Z" fill="#0D56F2"/>
<path d="M1073.66 486.947C1068.54 485.485 1067.81 492.063 1063.79 496.813C1059.77 501.198 1055.39 504.852 1053.56 504.487C1052.1 504.121 1042.96 507.41 1045.89 513.257C1048.81 519.469 1048.44 525.315 1045.52 528.239C1042.6 531.162 1048.08 539.201 1046.98 543.586C1046.25 547.971 1048.08 550.894 1053.93 550.894C1059.77 550.894 1061.6 548.702 1064.16 543.586C1066.72 538.47 1067.08 532.989 1069.27 528.604C1071.83 524.219 1073.66 514.718 1075.12 512.526C1076.22 509.968 1078.77 502.294 1078.41 497.909C1078.04 493.524 1076.58 488.043 1073.66 486.947Z" fill="#0D56F2"/>
<path d="M1220.91 382.803C1218.36 383.9 1216.16 397.785 1220.91 399.247C1225.67 400.709 1228.59 392.669 1227.13 390.842C1225.3 389.015 1224.57 381.342 1220.91 382.803Z" fill="#0D56F2"/>
<path d="M879.618 231.889C875.964 231.889 873.771 238.101 876.329 239.928C878.887 242.121 881.08 241.39 883.272 238.832C885.099 235.909 881.445 231.889 879.618 231.889Z" fill="#0D56F2"/>
<path d="M848.56 238.1C847.463 239.561 851.848 240.292 852.579 238.465C853.676 237.003 851.483 233.715 848.56 238.1Z" fill="#0D56F2"/>
<path d="M896.798 245.044C895.336 245.775 899.356 248.698 901.183 249.429C903.376 250.16 904.837 252.718 906.299 253.083C907.761 253.449 913.242 253.083 911.415 249.064C909.953 245.044 906.299 245.044 904.837 245.044C904.106 245.044 898.991 243.948 896.798 245.044Z" fill="#0D56F2"/>
<path d="M799.96 163.19C796.306 163.921 795.94 167.575 793.382 167.575C790.825 167.575 788.267 168.306 788.997 171.229C789.728 174.152 791.555 175.979 788.997 177.441C786.44 178.537 789.363 183.653 792.652 184.018C795.94 184.384 799.595 181.826 802.518 180.73C805.441 179.633 809.461 177.076 809.461 173.421C809.461 169.767 808.73 166.479 806.903 165.017C805.441 163.19 802.518 162.824 799.96 163.19Z" fill="#0D56F2"/>
<path d="M804.345 151.132C801.056 152.228 802.153 156.248 803.98 158.44C805.441 160.633 808.365 165.018 812.384 166.479C816.404 167.941 824.808 169.768 821.885 171.23C818.596 172.691 813.115 177.442 812.019 179.634C811.288 182.192 818.962 184.384 818.962 184.384C818.962 184.384 816.404 187.308 818.596 188.039C820.789 188.769 821.885 185.115 825.174 185.115C828.462 185.115 835.04 187.308 838.329 187.308C841.617 187.308 846.733 182.923 846.368 179.999C846.002 177.076 841.983 172.691 838.329 171.23C834.674 169.768 830.655 162.46 828.097 160.633C825.539 159.171 830.655 154.786 827.732 152.228C824.808 149.305 822.981 149.67 819.693 147.843C816.404 145.651 813.48 148.209 811.653 150.766C809.461 152.959 806.903 150.401 804.345 151.132Z" fill="#0D56F2"/>
<path d="M831.385 207.405C831.019 203.751 822.98 200.462 817.499 199.731C812.383 199 813.114 196.442 818.595 196.077C824.442 195.712 823.711 193.519 828.827 192.788C833.577 192.058 838.693 190.596 842.347 190.23C846.001 189.865 846.001 186.576 846.001 184.018C846.001 181.461 856.233 180.73 856.233 180.73C856.233 180.73 862.079 175.614 865.003 173.056C868.291 170.498 873.773 170.864 878.523 172.325C882.908 173.421 878.158 169.402 876.331 167.575C874.869 165.382 875.965 160.997 877.061 158.805C878.158 156.247 885.466 155.151 887.658 155.882C889.851 156.612 887.658 160.267 888.024 163.555C888.389 166.844 891.678 168.671 891.678 168.671L894.967 168.306C894.967 168.306 894.967 168.306 900.082 168.306C905.198 168.306 903.736 171.594 907.756 170.498C911.776 169.402 916.526 167.575 918.353 166.844C919.815 166.113 924.565 166.113 930.412 167.94C936.624 170.133 933.335 164.286 934.431 160.997C935.527 157.709 938.085 152.227 942.105 152.593C946.124 152.958 949.413 155.516 952.702 153.324C955.991 151.131 946.49 148.573 946.49 147.112C946.49 146.015 954.164 146.015 961.106 145.65C968.049 145.285 972.069 145.65 975.358 144.919C978.646 144.188 972.8 138.342 971.703 138.342C970.607 138.342 962.203 139.073 958.183 138.707C954.164 138.342 949.779 141.265 946.124 141.996C942.47 142.727 941.74 137.246 939.547 134.688C937.355 132.13 936.624 127.745 942.105 125.187C947.221 122.629 956.722 117.513 958.183 114.955C959.645 112.397 951.606 112.763 943.932 113.494C936.258 113.859 945.028 116.052 937.72 123.36C930.412 130.668 926.758 125.918 921.276 130.668C915.43 135.418 919.815 135.784 924.931 137.611C930.046 139.073 925.661 144.188 924.565 145.285C923.469 146.381 917.257 151.131 917.988 154.055C918.718 157.343 913.968 159.17 913.968 159.17C913.968 159.17 898.986 162.459 896.063 162.824C893.14 163.19 892.409 160.632 893.139 158.439C893.87 155.882 889.851 150.4 889.485 146.746C889.12 143.092 882.908 148.208 882.543 150.766C882.177 153.324 874.503 153.689 870.118 151.862C865.734 150.4 863.176 144.188 863.906 143.092C864.637 141.996 861.349 135.784 861.349 134.322C861.349 132.861 870.118 126.283 877.792 124.456C885.466 122.994 895.332 113.494 900.448 109.474C905.564 105.455 908.121 100.704 909.949 99.2425C911.41 98.1463 939.547 90.838 949.779 89.0109C960.01 87.5493 982.3 91.2034 985.955 91.9343C989.609 92.6651 991.801 94.1267 1000.57 97.05C1009.34 100.339 1017.01 100.339 1022.86 101.07C1028.71 101.8 1032.36 103.627 1036.02 105.089C1039.67 106.551 1036.02 108.012 1027.25 110.936C1018.48 113.859 1012.26 113.128 1007.51 111.301C1002.76 109.84 999.84 109.84 1003.49 112.032C1007.15 114.59 1006.05 115.686 1006.42 119.34C1006.78 122.994 1012.63 119.706 1013.73 118.975C1014.82 118.244 1014.82 116.417 1019.57 119.34C1023.96 122.264 1025.78 120.436 1027.61 120.071C1029.8 119.706 1027.98 115.321 1029.07 113.494C1030.17 112.032 1035.29 112.032 1036.38 110.936C1037.48 110.205 1040.4 108.743 1042.96 108.378C1045.52 108.012 1045.15 112.032 1047.34 113.128C1049.9 114.224 1048.44 108.012 1047.71 106.185C1046.98 104.724 1046.25 99.9733 1047.34 98.8771C1048.44 97.7809 1057.21 96.6846 1059.04 98.5117C1061.23 99.9733 1055.75 105.089 1056.84 108.012C1057.94 110.936 1060.86 106.551 1063.06 103.993C1065.25 101.435 1069.63 103.993 1076.94 102.897C1084.25 101.8 1082.79 97.7809 1090.46 99.9733C1098.14 102.531 1096.31 102.531 1098.5 99.9733C1101.06 97.4155 1105.44 100.339 1109.83 98.8771C1114.21 97.4155 1114.21 98.8771 1117.5 100.339C1120.79 101.8 1124.81 97.05 1126.27 95.5884C1127.74 94.1267 1134.31 94.1267 1137.6 94.4921C1140.89 94.8576 1144.91 97.05 1148.2 97.05C1151.49 97.05 1156.6 99.6079 1156.6 99.6079C1156.6 99.6079 1163.55 102.166 1165.01 100.339C1166.47 98.8771 1164.64 96.6846 1158.43 93.7613C1152.22 90.838 1154.78 86.0876 1158.43 85.7222C1162.08 85.3568 1161.72 83.1643 1164.64 81.7027C1167.57 80.241 1171.22 74.029 1174.51 75.1252C1177.8 76.2215 1180.72 78.7794 1184.74 80.9719C1188.76 83.1643 1185.1 85.7222 1184.37 87.9147C1183.64 90.1072 1185.1 97.7809 1186.57 98.8771C1187.66 99.9733 1185.47 104.724 1182.18 106.551C1178.89 108.743 1174.51 113.128 1175.6 113.859C1176.7 114.59 1186.57 110.205 1186.57 110.205C1186.57 110.205 1192.78 102.897 1195.34 100.704C1198.26 98.5117 1201.18 98.5117 1201.91 101.07C1202.64 103.627 1207.03 104.358 1211.41 102.531C1215.43 101.07 1211.41 99.6079 1211.05 95.9538C1210.68 92.2997 1204.11 94.4921 1200.45 95.223C1196.8 95.9538 1193.87 99.6079 1192.78 99.6079C1191.68 99.6079 1191.68 97.05 1192.41 93.3959C1193.14 89.7418 1190.95 87.5493 1190.95 85.7222C1190.95 83.5297 1192.05 83.5297 1194.97 79.5102C1197.89 75.4906 1197.89 82.4335 1198.26 86.0876C1198.63 89.7418 1201.55 88.2801 1204.11 87.5493C1206.66 87.1839 1205.2 82.4335 1207.4 79.8756C1209.59 77.3177 1213.97 76.9523 1217.99 80.6064C1222.01 84.2606 1221.65 83.1643 1226.4 84.626C1231.15 86.0876 1231.51 86.8185 1232.24 90.4726C1232.61 94.1267 1235.9 94.4921 1238.09 93.3959C1240.28 92.2997 1238.46 87.1839 1237.36 85.7222C1236.26 84.2606 1226.4 81.3373 1223.11 78.414C1219.82 75.4907 1224.57 75.4907 1228.22 75.4907C1231.88 75.4907 1238.82 75.8561 1238.82 75.8561C1238.82 75.8561 1246.49 74.3944 1250.51 71.4711C1254.53 68.5478 1257.46 68.5478 1261.48 67.0861C1265.5 65.6245 1272.07 65.6245 1276.09 66.3553C1280.11 67.0861 1283.04 64.8937 1287.06 63.0666C1291.07 61.6049 1295.46 60.1433 1296.92 60.8741C1298.02 61.6049 1308.25 64.1628 1309.71 63.7974C1311.17 63.432 1314.83 62.3358 1321.4 59.7779C1327.98 57.22 1325.06 57.5854 1327.62 56.4892C1330.17 55.3929 1334.19 55.0275 1342.6 58.6816C1351 62.3358 1342.6 58.6816 1345.16 61.2395C1347.71 63.7974 1348.81 60.8741 1354.66 60.1433C1360.5 59.4125 1364.16 60.1433 1367.45 60.5087C1371.1 60.8741 1379.14 60.8741 1382.79 63.432C1386.45 65.9899 1380.24 71.1057 1378.41 72.9328C1376.22 74.3944 1381.7 75.8561 1383.16 75.4907C1384.62 75.1252 1398.14 75.4907 1404.35 76.2215C1410.57 76.9523 1412.76 79.8756 1415.68 79.8756C1418.6 79.8756 1422.99 78.7794 1424.45 76.9523C1425.91 75.4907 1436.14 74.3944 1439.43 74.029C1442.72 73.6636 1451.49 74.029 1452.95 74.7598C1454.05 75.4907 1455.51 79.5102 1455.51 82.7989C1455.51 86.0876 1459.17 89.0109 1462.09 89.3764C1465.01 89.7418 1470.13 84.626 1472.32 83.5297C1474.51 82.7989 1476.7 87.1839 1478.17 86.0876C1479.26 84.9914 1489.49 86.4531 1493.51 84.626C1497.53 82.4335 1500.09 84.626 1501.92 83.8952C1504.11 83.1643 1507.03 78.7794 1507.03 76.9523C1507.03 75.4907 1508.5 74.029 1507.03 71.8365C1505.57 69.2786 1499.73 71.1057 1493.51 69.2786C1487.3 67.817 1493.15 65.2591 1495.71 63.432C1498.26 61.9704 1502.28 63.432 1506.3 64.1628C1510.32 64.8937 1508.86 63.0666 1510.69 63.0666C1512.88 63.0666 1519.82 65.2591 1524.21 65.2591C1528.23 65.2591 1531.52 69.644 1531.52 69.644C1531.52 69.644 1520.19 72.9328 1517.63 72.9328C1515.07 72.9328 1516.9 76.2215 1518.73 76.2215C1520.92 76.2215 1523.48 77.3177 1526.4 79.5102C1529.32 81.7027 1541.75 79.5102 1543.58 79.5102C1545.04 79.5102 1550.15 81.7027 1554.9 84.2606C1559.65 87.1839 1562.94 88.2801 1562.94 88.2801C1562.94 88.2801 1569.89 88.2801 1576.83 87.5493C1583.77 86.8185 1592.54 86.8185 1594.37 87.9147C1595.83 89.0109 1600.58 90.4726 1603.5 93.0305C1606.79 95.9538 1609.35 94.4921 1613.74 94.1267C1618.12 93.7613 1622.5 93.0305 1626.52 93.0305C1630.54 93.0305 1644.06 92.6651 1646.26 96.3192C1648.81 99.9733 1651.37 99.2425 1651.37 99.2425C1651.37 99.2425 1655.03 92.6651 1656.49 91.5688C1657.95 90.4726 1663.43 92.2997 1666.72 94.1267C1670.01 95.5884 1685.72 94.1267 1689.74 94.8576C1693.76 95.5884 1699.61 99.6079 1696.32 102.897C1693.03 106.185 1698.88 111.667 1697.41 114.955C1696.32 118.244 1693.03 118.609 1689.74 119.34C1686.45 120.071 1693.03 124.091 1695.95 127.014C1698.88 129.937 1694.49 130.668 1691.57 129.572C1688.64 128.476 1681.34 129.937 1672.2 132.495C1662.7 135.053 1659.05 139.803 1649.55 140.169C1639.68 140.534 1643.7 139.803 1631.64 139.803C1619.58 139.803 1619.95 143.092 1617.39 147.112C1614.83 151.131 1618.49 150.4 1617.39 153.689C1616.29 156.978 1614.1 160.632 1614.1 163.555C1614.1 166.479 1606.79 166.844 1604.23 169.402C1601.68 171.96 1597.66 177.806 1590.71 182.191C1583.77 186.576 1579.02 193.519 1579.02 193.519C1579.02 193.519 1580.12 186.576 1583.41 181.826C1586.69 177.076 1579.75 170.133 1579.39 164.652C1579.02 159.536 1581.58 157.709 1585.6 152.958C1589.62 148.208 1599.48 146.381 1603.5 144.188C1607.52 141.63 1624.33 130.303 1624.33 130.303C1624.33 130.303 1621.04 132.495 1617.02 133.957C1613 135.418 1608.25 138.707 1604.97 138.707C1601.68 138.707 1602.77 135.418 1602.41 132.13C1602.04 128.841 1594.37 131.399 1591.44 134.688C1588.52 137.976 1583.41 139.803 1577.56 144.188C1571.71 148.208 1573.54 147.842 1569.89 148.208C1566.23 148.573 1560.02 146.015 1557.46 144.188C1554.54 141.996 1551.61 145.65 1542.84 146.381C1534.07 146.746 1523.84 145.65 1519.82 146.015C1515.8 146.381 1505.57 158.074 1499.73 160.267C1493.51 162.459 1485.84 166.113 1488.03 168.671C1490.23 171.594 1493.88 166.113 1495.34 166.113C1496.8 166.113 1494.24 171.96 1497.9 171.96C1501.55 171.96 1503.38 169.767 1507.4 169.402C1511.05 169.036 1513.98 172.325 1514.71 176.71C1515.44 181.095 1513.25 184.749 1511.42 190.596C1509.96 196.442 1507.4 201.924 1500.82 206.674C1494.24 211.424 1483.65 220.56 1481.82 222.752C1479.63 225.31 1472.32 223.118 1471.22 221.656C1470.13 220.194 1466.47 225.31 1463.55 226.406C1460.63 227.503 1457.7 230.061 1457.7 233.349C1457.7 236.638 1449.66 236.638 1449.66 238.465C1449.66 240.658 1454.41 246.139 1456.61 249.062C1458.8 251.985 1456.24 260.755 1452.59 262.948C1448.93 265.14 1447.47 267.333 1442.36 264.409C1437.61 261.486 1441.63 260.024 1443.45 255.639C1445.64 251.254 1441.26 248.697 1440.53 247.6C1439.8 246.504 1436.51 250.158 1434.68 250.524C1433.22 250.889 1433.22 246.87 1434.32 244.312C1435.41 241.754 1433.59 236.638 1432.12 236.273C1431.03 235.907 1423.35 242.485 1420.07 242.119C1416.78 241.754 1419.7 234.445 1420.8 232.253C1421.89 230.061 1418.24 231.888 1416.05 233.715C1413.49 235.907 1408.37 240.292 1406.18 239.927C1403.99 239.561 1399.97 243.215 1403.26 245.773C1406.55 248.331 1407.64 250.158 1409.83 250.524C1412.03 250.889 1417.14 249.793 1419.34 249.427C1421.53 249.062 1425.55 252.351 1421.53 256.005C1417.51 259.659 1409.1 260.024 1410.57 262.582C1412.03 265.14 1416.41 268.794 1419.34 274.276C1422.62 280.122 1421.53 285.969 1422.26 290.354C1422.99 294.739 1410.57 304.239 1406.91 306.797C1403.26 309.721 1399.6 316.663 1393.39 319.952C1387.18 323.241 1374.39 326.164 1372.2 324.703C1370 323.606 1364.52 326.895 1364.89 331.28C1365.25 335.665 1368.18 335.3 1368.18 336.396C1368.18 337.492 1364.16 342.608 1362.33 344.435C1360.87 346.627 1355.02 344.435 1355.75 338.223C1356.48 332.011 1360.5 329.818 1360.14 326.895C1359.77 323.972 1356.12 322.51 1353.56 324.703C1351 327.26 1343.33 334.203 1343.33 334.203C1343.33 334.203 1346.25 341.512 1349.91 344.435C1353.56 347.358 1356.12 351.378 1360.87 357.224C1365.62 363.436 1361.97 368.552 1360.87 372.937C1359.77 377.322 1355.75 377.322 1352.46 378.053C1349.18 378.784 1348.44 380.245 1347.35 382.438C1346.25 384.996 1340.41 387.554 1339.67 385.727C1338.94 383.534 1333.46 378.784 1333.46 378.784C1333.46 378.784 1329.81 371.475 1324.69 367.821C1319.58 364.167 1317.38 362.706 1317.38 366.36C1317.38 370.014 1314.1 376.957 1314.1 379.149C1314.1 381.707 1306.79 371.841 1306.79 367.821C1306.79 363.802 1305.69 356.859 1306.06 350.282C1306.42 343.704 1297.65 349.916 1297.65 349.916C1297.65 349.916 1293.63 356.859 1291.44 356.859C1289.25 356.859 1288.52 351.012 1288.88 346.262C1289.25 341.512 1287.06 336.761 1285.59 335.3C1284.5 333.838 1277.55 327.26 1276.46 322.876C1275.36 318.491 1272.8 319.952 1270.25 322.51C1267.69 325.068 1268.78 325.068 1258.92 325.068C1249.05 325.068 1249.42 331.28 1244.67 334.934C1239.92 338.588 1235.9 345.531 1230.05 348.089C1224.2 350.647 1222.01 352.839 1222.01 355.763C1222.01 358.686 1222.01 365.994 1220.92 370.014C1219.82 374.033 1218.72 379.88 1216.17 383.9C1213.24 387.919 1211.05 394.497 1208.49 394.497C1205.93 394.497 1205.2 389.015 1205.2 384.996C1205.2 381.342 1198.26 372.937 1196.8 370.014C1195.34 367.091 1189.12 354.666 1189.12 354.666C1189.12 354.666 1184.37 341.146 1184.74 337.492C1185.1 333.838 1185.1 323.606 1185.1 323.606C1185.1 323.606 1178.53 330.184 1175.6 329.818C1172.68 329.453 1169.76 325.068 1170.49 319.587C1170.85 314.471 1165.74 314.836 1162.81 313.74C1159.89 313.009 1156.24 305.701 1154.41 305.701C1152.22 305.701 1151.12 305.701 1149.66 308.259C1148.2 310.817 1139.43 310.451 1137.6 310.451C1135.41 310.451 1123.35 310.086 1119.7 308.99C1116.04 307.894 1112.02 300.585 1109.83 299.854C1108 299.124 1101.79 304.239 1099.23 303.509C1096.67 302.778 1091.92 298.758 1086.81 296.2C1081.69 293.642 1079.87 288.161 1078.04 284.507C1075.85 280.853 1069.27 286.7 1070 290.719C1070.73 294.739 1079.87 300.22 1079.87 302.778C1079.87 305.701 1081.33 306.432 1086.08 310.086C1090.46 313.74 1086.81 315.933 1089.73 316.663C1092.66 317.394 1096.67 313.375 1100.69 311.548C1104.71 309.355 1104.35 306.797 1106.54 306.797C1108.73 306.797 1108 311.913 1111.29 312.644C1114.58 313.009 1122.98 317.76 1125.18 321.048C1127.37 324.337 1122.98 326.164 1121.52 329.088C1120.06 332.011 1114.95 340.05 1110.93 343.339C1106.91 346.627 1102.52 351.012 1096.31 352.109C1090.1 353.205 1089.37 356.494 1084.62 356.859C1079.87 357.224 1066.35 363.802 1064.52 364.898C1062.33 365.994 1051.36 369.283 1048.44 368.187C1045.15 367.091 1044.06 358.686 1042.59 352.839C1041.5 346.627 1039.67 343.339 1038.57 341.146C1037.48 338.588 1030.17 332.376 1028.34 330.915C1026.88 329.818 1022.5 319.952 1022.13 315.933C1021.77 311.913 1017.38 313.375 1016.28 308.99C1015.55 304.605 1011.17 298.393 1010.07 295.47C1009.34 292.546 1001.3 295.835 998.013 296.2C994.725 296.566 988.512 293.642 989.609 287.43C990.339 280.853 993.628 280.853 997.648 280.853C1001.67 280.853 1000.21 278.66 1004.23 274.641C1008.24 270.621 1009.34 262.582 1010.07 257.101C1010.44 251.985 1007.15 254.178 1003.86 254.909C1000.57 255.639 995.821 257.101 993.994 256.37C992.532 256.005 985.955 253.812 984.858 255.274C983.762 256.37 976.819 255.639 974.992 253.812C973.53 251.62 965.126 249.427 964.395 247.6C963.664 246.139 964.395 236.273 962.934 233.715C961.472 231.157 957.818 234.08 955.625 235.907C953.433 237.369 947.952 238.83 949.413 239.927C950.875 241.023 956.356 243.581 955.991 246.87C955.625 250.158 951.971 250.889 949.779 252.716C947.586 254.178 943.567 256.736 942.47 254.909C941.374 252.716 937.355 243.946 935.893 242.485C934.797 241.023 931.143 236.638 929.681 232.984C928.585 229.33 923.834 228.233 921.276 225.31C918.353 222.387 910.314 218.002 907.025 214.713C903.736 211.424 898.255 208.867 897.525 213.252C897.159 217.271 903.371 218.002 905.564 222.021C908.121 226.041 913.237 228.599 916.161 229.695C919.084 230.791 926.758 236.273 926.758 236.273C926.758 236.273 923.469 237.369 920.546 237.003C917.622 236.638 920.18 241.754 919.815 244.677C919.449 247.6 916.526 247.6 915.795 244.312C915.064 241.023 912.506 237.369 911.045 236.273C909.583 235.176 898.986 231.888 897.159 231.157C895.697 230.426 888.755 226.041 888.024 222.387C887.293 218.733 881.081 218.367 879.619 219.098C878.158 219.829 871.946 224.214 869.022 224.214C866.099 224.214 861.714 222.021 858.425 221.656C855.136 221.291 854.771 226.772 853.675 230.061C852.579 233.349 847.097 230.791 844.54 233.715C841.616 236.638 836.866 239.561 837.962 241.754C839.058 244.312 841.251 244.312 837.597 246.139C833.943 248.331 831.75 252.351 828.096 252.716C824.442 253.082 819.691 254.909 817.499 253.447C815.306 252.351 813.845 257.467 812.749 258.563C811.652 259.659 809.46 254.909 807.633 252.716C805.44 250.524 800.325 252.351 798.863 251.985C797.401 251.62 795.574 247.966 793.747 246.139C791.555 244.677 792.285 241.023 793.747 239.561C795.209 238.465 797.036 236.273 795.94 232.618C794.843 228.964 793.747 220.925 798.132 219.098C802.152 217.636 812.018 219.098 816.768 219.098C821.518 219.098 829.923 220.925 831.385 218.367C830.654 215.079 831.75 211.059 831.385 207.405ZM984.127 136.149C982.666 139.803 993.628 143.092 995.455 140.169C997.282 137.246 985.955 130.303 984.127 136.149ZM970.242 234.08C970.973 235.542 974.992 231.522 978.281 231.522C981.57 231.522 988.878 232.618 990.705 230.061C992.897 227.137 999.109 226.772 1004.59 227.503C1009.71 228.233 1014.46 231.888 1018.11 232.253C1021.77 232.618 1031.63 231.888 1034.55 231.157C1037.84 230.426 1037.11 224.579 1031.63 221.656C1026.52 218.733 1021.77 214.348 1017.01 212.886C1012.26 211.424 1010.44 209.597 1013.36 208.867C1016.28 208.136 1019.94 204.847 1015.92 204.847C1011.9 204.847 1008.24 205.943 1007.88 208.136C1007.51 210.328 1004.96 212.521 1003.49 213.252C1002.03 213.982 997.648 217.271 996.552 214.713C995.455 212.155 990.705 204.847 988.878 204.482C986.685 204.116 983.762 204.482 981.204 208.501C978.646 212.521 976.088 216.54 973.53 218.367C970.973 219.829 967.684 224.945 970.242 225.676C972.8 226.772 970.242 234.08 970.242 234.08ZM1063.06 205.943C1058.31 209.232 1056.48 213.617 1058.67 216.54C1060.86 219.464 1066.35 228.233 1069.27 228.964C1072.19 229.695 1082.06 231.522 1078.04 235.176C1074.02 238.83 1073.29 239.927 1069.63 239.561C1065.98 239.196 1067.44 249.427 1070.37 250.158C1073.29 250.889 1081.69 253.812 1084.62 254.178C1087.54 254.543 1096.67 253.447 1096.31 250.889C1095.94 248.331 1094.12 238.83 1091.19 236.273C1087.9 233.715 1095.58 231.522 1093.75 229.33C1091.56 227.137 1089 228.233 1087.17 225.676C1085.71 223.118 1084.62 220.925 1082.42 219.098C1079.87 217.636 1078.04 220.56 1078.4 216.175C1078.77 211.79 1084.62 208.867 1086.81 211.424C1089.37 213.982 1096.67 212.521 1098.14 211.424C1099.6 210.328 1094.85 206.674 1093.75 204.116C1092.66 201.558 1084.25 199.731 1083.15 200.462C1082.06 201.193 1078.77 203.751 1075.48 205.578C1072.19 207.77 1065.61 204.116 1063.06 205.943Z" fill="#0D56F2"/>
<path d="M1109.83 91.2038C1106.91 94.1271 1100.7 93.3963 1095.95 90.8384C1091.56 88.2805 1086.08 87.9151 1083.89 87.1843C1081.33 86.4534 1084.25 81.3377 1087.18 80.2414C1090.1 79.1452 1097.77 75.491 1103.26 72.9331C1108.74 70.3753 1110.56 65.6249 1114.58 65.6249C1118.6 65.6249 1137.97 61.6053 1140.53 62.3362C1143.09 63.067 1154.78 63.7978 1157.34 60.8745C1159.9 57.5858 1168.3 59.7783 1166.11 62.3362C1163.91 65.2595 1156.61 71.4715 1151.86 70.3752C1147.11 69.279 1133.22 69.6444 1127.01 70.3752C1120.8 71.1061 1115.31 74.7602 1109.83 77.6835C1104.72 80.6068 1105.81 83.8955 1107.64 84.261C1110.2 84.6264 1112.03 88.6459 1109.83 91.2038Z" fill="#0D56F2"/>
<path d="M1519.82 171.596C1517.63 172.327 1510.32 170.865 1512.88 176.347C1515.44 182.193 1515.81 186.213 1515.44 190.598C1515.07 194.983 1515.44 204.483 1516.17 205.58C1516.9 206.676 1520.19 209.599 1522.38 208.868C1524.58 208.138 1521.65 200.099 1521.65 198.271C1521.65 196.81 1524.58 194.252 1526.04 193.886C1527.5 193.521 1526.04 186.578 1523.84 183.655C1521.65 180.732 1519.09 179.27 1520.56 178.905C1522.02 178.539 1524.21 175.25 1523.11 174.52C1522.02 173.789 1522.75 170.865 1519.82 171.596Z" fill="#0D56F2"/>
<path d="M1515.8 213.253C1512.88 213.984 1511.78 218.004 1511.78 219.465C1511.78 220.562 1500.46 223.12 1504.11 226.408C1507.76 229.697 1511.42 227.139 1517.27 226.774C1523.11 226.408 1528.23 224.581 1528.23 224.581C1528.23 224.581 1536.63 224.947 1535.54 220.927C1534.44 216.908 1525.3 216.542 1523.84 216.908C1522.02 217.273 1519.09 212.157 1515.8 213.253Z" fill="#0D56F2"/>
<path d="M1506.67 228.966C1503.75 230.793 1505.57 237.735 1503.01 242.851C1500.46 247.602 1498.63 251.987 1496.8 251.987C1495.34 251.987 1486.57 255.275 1484.38 257.833C1481.82 260.391 1470.13 255.641 1468.67 257.833C1467.2 260.026 1463.92 262.218 1461.72 264.045C1459.53 265.507 1454.05 264.411 1455.15 269.161C1456.24 273.911 1459.16 278.662 1461.72 278.662C1464.28 278.662 1467.57 277.2 1467.57 272.45C1467.57 268.065 1473.42 272.45 1475.97 272.084C1478.9 271.719 1480.36 268.796 1481.82 265.507C1482.92 262.218 1480.36 266.969 1485.11 268.43C1489.86 269.526 1491.69 266.238 1491.69 265.141C1491.69 264.045 1500.46 261.853 1502.28 260.757C1503.75 259.66 1510.32 257.468 1510.69 256.006C1511.05 254.544 1510.69 245.044 1512.88 244.313C1515.07 243.582 1517.63 243.582 1514.34 237.735C1510.69 231.889 1510.69 226.408 1506.67 228.966Z" fill="#0D56F2"/>
<path d="M1417.51 308.626C1411.66 309.722 1407.64 322.512 1412.76 322.146C1417.51 321.781 1422.62 307.895 1417.51 308.626Z" fill="#0D56F2"/>
<path d="M1667.45 595.839C1665.99 596.57 1667.45 600.955 1668.91 602.782C1670.37 604.244 1671.47 610.09 1671.1 611.552C1670.74 613.014 1663.8 615.206 1667.08 617.399C1670.37 619.591 1676.59 617.399 1675.49 619.957C1674.76 622.514 1671.47 625.803 1675.12 626.534C1678.78 627.265 1679.87 623.611 1681.7 620.687C1683.16 617.764 1684.62 615.572 1687.55 613.745C1690.47 612.283 1687.55 608.629 1686.09 608.629C1684.62 608.629 1683.53 610.821 1679.87 608.629C1676.22 606.436 1676.95 607.533 1674.76 603.513C1671.84 599.128 1671.47 593.647 1667.45 595.839Z" fill="#0D56F2"/>
<path d="M1664.16 621.783C1663.43 623.61 1660.14 624.341 1657.58 626.168C1655.03 628.36 1657.58 629.091 1650.64 633.111C1643.7 637.13 1635.29 641.515 1633.47 645.169C1632 648.823 1634.93 651.016 1641.51 651.381C1648.08 651.747 1646.26 652.843 1651.01 648.093C1655.39 643.342 1659.41 640.419 1664.89 636.399C1670.01 632.38 1670.01 626.168 1670.01 626.168C1670.01 626.168 1664.53 620.321 1664.16 621.783Z" fill="#0D56F2"/>
<path d="M1528.96 625.073C1524.58 629.457 1533.35 629.457 1532.25 633.842C1531.16 638.227 1538.46 636.766 1540.29 636.035C1542.48 635.304 1547.23 625.803 1546.5 623.611C1545.77 621.053 1537.73 627.63 1535.54 627.265C1533.35 626.534 1528.96 625.073 1528.96 625.073Z" fill="#0D56F2"/>
<path d="M1499.36 593.283C1499.36 589.263 1496.81 597.668 1495.34 594.014C1493.88 590.36 1496.81 584.148 1492.79 586.706C1488.77 589.264 1486.57 591.091 1486.21 593.283C1485.84 595.476 1478.53 596.206 1478.9 594.014C1479.27 591.821 1482.19 587.071 1479.27 585.244C1476.34 583.051 1471.59 582.321 1467.94 581.224C1464.28 580.128 1468.3 576.109 1458.44 577.936C1448.57 580.128 1444.92 582.321 1444.92 582.321C1444.92 582.321 1436.15 579.397 1433.22 582.686C1430.3 585.975 1426.28 592.187 1426.28 592.187C1426.28 592.187 1414.95 592.552 1412.39 592.918C1409.84 593.283 1405.82 596.572 1402.16 597.668C1398.51 598.764 1392.3 600.226 1390.1 598.033C1387.55 595.841 1383.53 592.187 1384.99 589.994C1386.09 587.436 1395.22 584.148 1391.93 580.128C1388.64 576.109 1386.82 575.378 1386.09 572.82C1385.72 570.262 1387.18 569.166 1382.43 564.415C1377.68 559.665 1378.78 553.818 1380.97 553.088C1383.16 552.357 1379.87 547.241 1378.05 545.414C1376.58 543.221 1376.58 535.913 1379.51 534.086C1382.8 531.894 1392.66 524.22 1395.22 524.22C1398.14 524.22 1402.53 525.316 1405.45 523.489C1408.38 521.297 1416.78 522.393 1416.78 520.566C1416.78 519.104 1417.51 512.527 1419.7 510.334C1421.9 508.142 1430.3 506.315 1431.4 504.488C1432.49 503.026 1434.69 496.083 1437.24 494.621C1439.8 493.525 1441.63 490.602 1445.28 494.621C1448.94 498.641 1452.59 500.468 1454.05 496.083C1455.51 492.064 1454.42 493.16 1458.07 489.506C1461.73 485.852 1457.71 479.64 1461.36 483.294C1465.01 486.948 1467.57 489.871 1467.57 489.871C1467.57 489.871 1467.21 481.832 1469.76 481.832C1472.32 481.832 1474.52 485.852 1475.98 485.852C1477.07 485.852 1488.04 483.294 1490.23 486.217C1492.42 489.14 1484.38 496.814 1487.3 499.737C1490.23 502.661 1495.71 504.122 1499.73 506.68C1503.75 509.238 1508.5 514.719 1510.69 509.969C1512.88 505.218 1516.9 497.91 1513.98 494.256C1511.06 490.602 1514.71 478.909 1516.17 478.178C1517.27 477.447 1519.46 487.679 1523.48 492.064C1527.5 496.448 1531.52 499.737 1533.71 504.488C1535.9 509.238 1536.27 518.008 1539.92 520.566C1543.58 523.489 1550.89 523.489 1550.52 527.143C1550.16 530.797 1558.56 537.74 1562.95 544.683C1567.33 551.626 1567.7 566.608 1567.7 573.185C1567.7 579.763 1562.95 588.167 1559.29 592.918C1555.64 597.668 1554.54 604.245 1552.71 606.803C1551.25 609.361 1551.98 608.996 1545.77 610.458C1539.56 611.919 1535.17 617.035 1533.71 615.208C1532.25 613.746 1526.4 610.823 1524.94 612.65C1523.48 614.842 1521.29 619.227 1518.36 614.112C1515.44 609.361 1508.86 610.092 1507.77 609.361C1506.67 608.63 1506.67 606.073 1506.67 602.053C1506.67 598.033 1501.56 597.668 1500.82 596.206C1500.46 595.841 1499.36 594.379 1499.36 593.283Z" fill="#0D56F2"/>
<path d="M1686.09 513.987C1691.21 516.179 1700.71 506.678 1697.05 505.582C1693.4 504.12 1686.09 513.987 1686.09 513.987Z" fill="#0D56F2"/>
<path d="M1634.56 534.085C1633.83 538.104 1628.72 536.277 1626.52 532.623C1623.97 528.969 1619.21 526.046 1626.52 527.873C1633.83 529.334 1634.93 532.258 1634.56 534.085Z" fill="#0D56F2"/>
<path d="M1292.91 401.806C1287.79 402.903 1300.21 411.672 1301.31 412.769C1302.41 413.865 1313.37 423.366 1313.37 427.751C1313.37 432.136 1320.68 442.732 1322.5 444.194C1324.7 445.656 1334.56 451.868 1336.39 455.157C1337.85 458.445 1341.51 459.176 1341.51 454.791C1341.51 450.406 1342.24 444.925 1344.43 442.732C1346.62 440.175 1345.53 436.52 1342.24 436.886C1338.95 437.251 1336.02 431.77 1330.91 428.116C1325.79 424.462 1321.41 421.904 1316.66 416.788C1311.91 411.672 1305.7 408.384 1302.41 405.46C1299.85 402.903 1295.1 401.441 1292.91 401.806Z" fill="#0D56F2"/>
<path d="M1308.61 380.613C1305.33 380.978 1305.33 387.19 1307.15 389.017C1308.61 391.21 1311.9 389.748 1314.1 397.056C1316.29 404.364 1320.31 411.673 1321.77 414.596C1323.23 417.519 1330.17 421.539 1332.73 423.366C1335.29 425.558 1338.94 422.635 1337.12 420.077C1335.66 417.519 1332.37 413.865 1332 411.307C1331.64 408.384 1329.44 403.999 1326.15 399.249C1322.87 394.498 1319.94 393.037 1318.12 389.748C1315.92 386.459 1308.61 380.613 1308.61 380.613Z" fill="#0D56F2"/>
<path d="M1342.97 456.983C1340.04 460.637 1343.7 463.561 1345.16 464.292C1346.25 465.022 1351 465.753 1355.02 465.388C1359.04 465.022 1364.89 463.926 1360.14 461.368C1355.75 458.81 1350.27 461.368 1348.81 458.08C1346.98 455.156 1344.43 455.156 1342.97 456.983Z" fill="#0D56F2"/>
<path d="M1366.35 460.272C1363.42 461.368 1359.04 462.465 1362.33 465.023C1365.62 467.946 1367.44 469.042 1372.56 468.677C1377.31 468.311 1384.62 471.234 1384.98 468.677C1385.35 466.119 1380.6 462.465 1378.41 462.465C1376.58 462.83 1366.35 460.272 1366.35 460.272Z" fill="#0D56F2"/>
<path d="M1406.18 473.792C1405.45 477.446 1412.39 478.907 1412.76 474.888C1413.12 470.868 1406.91 470.503 1406.18 473.792Z" fill="#0D56F2"/>
<path d="M1427.38 476.716C1428.11 481.101 1436.15 474.158 1436.15 474.158C1436.15 474.158 1442.72 473.427 1442.72 470.504C1442.72 467.58 1436.15 463.926 1433.95 467.215C1431.76 470.504 1427.01 473.792 1427.38 476.716Z" fill="#0D56F2"/>
<path d="M1409.83 431.038C1407.27 431.769 1407.64 433.961 1406.91 437.981C1406.18 442 1402.52 444.924 1405.81 446.751C1409.1 448.943 1415.31 439.808 1416.78 442.731C1418.24 445.654 1416.41 446.751 1419.33 450.405C1422.26 454.059 1427.37 453.693 1427.37 453.693C1427.37 453.693 1427.01 443.827 1422.62 441.635C1418.24 439.442 1415.31 436.519 1420.43 437.25C1425.55 437.981 1428.47 436.154 1427.37 433.596C1426.28 431.038 1418.6 432.499 1416.04 432.865C1413.49 433.23 1409.83 431.038 1409.83 431.038Z" fill="#0D56F2"/>
<path d="M1412.03 422.999C1409.11 425.923 1411.3 428.846 1415.68 428.115C1420.07 427.75 1429.57 426.654 1431.4 426.654C1433.59 426.654 1436.15 421.538 1434.68 421.538C1433.22 421.538 1421.89 423.73 1420.43 424.096C1419.34 424.096 1412.03 422.999 1412.03 422.999Z" fill="#0D56F2"/>
<path d="M1453.32 417.519C1449.66 416.058 1442.72 431.039 1447.84 432.136C1452.59 433.232 1456.24 418.615 1453.32 417.519Z" fill="#0D56F2"/>
<path d="M1397.78 395.96C1397.78 393.037 1391.2 396.691 1390.84 399.614C1390.47 402.537 1395.22 404.73 1387.55 404.73C1379.88 404.73 1379.51 410.942 1377.68 412.038C1376.22 413.135 1374.39 413.5 1371.11 414.596C1367.82 415.327 1367.09 418.616 1366.36 420.808C1365.62 423.001 1359.78 417.154 1358.32 418.616C1356.85 420.077 1357.95 428.117 1360.87 434.329C1363.8 440.906 1371.11 444.926 1372.93 444.926C1375.13 444.926 1379.15 444.926 1381.7 445.656C1384.63 446.387 1393.76 447.118 1393.4 443.464C1393.03 439.81 1392.3 433.963 1396.32 430.309C1400.34 426.655 1404.36 424.462 1402.53 419.347C1400.34 414.231 1396.32 410.942 1399.24 408.384C1402.17 405.826 1405.45 405.095 1405.45 403.268C1405.82 401.441 1398.88 409.115 1397.78 395.96Z" fill="#0D56F2"/>
<path d="M1417.87 338.589C1414.95 338.589 1418.24 342.974 1414.22 345.897C1410.2 348.82 1405.81 349.916 1408.01 354.667C1410.57 359.417 1418.97 363.071 1416.78 365.264C1414.58 367.456 1408.74 371.476 1408.01 375.13C1407.28 378.784 1417.87 369.283 1420.43 365.629C1423.35 361.975 1428.84 364.168 1430.3 361.975C1431.39 359.783 1431.39 359.783 1431.39 359.783C1431.39 359.783 1427.01 359.052 1423.35 357.59C1419.7 356.494 1415.32 360.879 1417.14 354.301C1419.34 347.724 1425.18 349.186 1424.09 344.07C1422.99 340.05 1418.97 338.589 1417.87 338.589Z" fill="#0D56F2"/>
<path d="M1421.53 374.035C1420.07 374.4 1416.78 381.708 1421.17 381.708C1425.55 381.708 1433.22 382.805 1431.76 380.977C1429.94 378.785 1425.92 372.207 1421.53 374.035Z" fill="#0D56F2"/>
<path d="M1434.68 367.823C1433.22 367.823 1427.74 376.227 1435.05 375.862C1442.72 375.496 1440.53 368.188 1434.68 367.823Z" fill="#0D56F2"/>
<path d="M1436.14 382.803C1430.3 390.112 1431.03 388.65 1426.64 386.823C1422.62 385.361 1416.05 390.477 1417.14 392.67C1418.24 394.862 1427.37 392.304 1429.2 395.958C1431.39 399.612 1431.39 399.978 1435.41 399.247C1439.43 398.516 1443.45 392.67 1442.36 389.746C1441.26 386.823 1436.14 382.803 1436.14 382.803Z" fill="#0D56F2"/>
<path d="M1463.55 430.673C1460.63 433.596 1459.17 433.962 1466.11 435.058C1473.05 436.154 1474.88 436.154 1472.32 439.443C1469.4 442.732 1467.57 446.751 1469.77 447.117C1472.32 447.482 1479.63 445.655 1480.36 447.117C1481.09 448.578 1478.9 449.309 1486.94 450.405C1494.98 451.502 1496.81 454.425 1498.27 456.252C1499.73 457.714 1504.85 463.195 1501.56 463.195C1498.27 463.195 1494.61 467.214 1497.17 467.58C1499.73 467.945 1507.04 466.484 1507.4 467.58C1507.77 468.676 1511.79 476.35 1515.81 475.984C1519.83 475.619 1522.38 468.311 1524.21 466.118C1526.4 463.926 1534.44 462.829 1535.17 466.484C1535.91 470.138 1538.46 473.792 1543.21 476.35C1547.96 478.908 1553.81 481.1 1554.18 479.273C1554.54 477.081 1551.62 469.407 1548.33 468.311C1545.04 467.214 1539.56 460.272 1539.56 457.348C1539.56 454.425 1534.81 453.694 1532.25 451.502C1529.69 449.309 1527.87 443.828 1521.65 442.732C1515.44 441.635 1513.98 439.443 1507.4 436.154C1500.83 432.866 1486.21 432.866 1485.84 435.058C1485.48 437.251 1485.84 435.058 1481.09 433.596C1476.34 432.135 1472.69 433.596 1471.23 430.673C1470.13 427.75 1467.21 427.019 1463.55 430.673Z" fill="#0D56F2"/>
<rect x="314" y="131" width="13" height="13" rx="6.5" fill="white"/>
<rect x="319" y="136" width="3" height="3" rx="1.5" fill="#111111"/>
<rect x="395" y="209" width="13" height="13" rx="6.5" fill="white"/>
<rect x="400" y="214" width="3" height="3" rx="1.5" fill="#111111"/>
<rect x="577" y="435" width="13" height="13" rx="6.5" fill="white"/>
<rect x="582" y="440" width="3" height="3" rx="1.5" fill="#111111"/>
<rect x="542" y="594" width="13" height="13" rx="6.5" fill="white"/>
<rect x="547" y="599" width="3" height="3" rx="1.5" fill="#111111"/>
<rect x="802" y="265" width="13" height="13" rx="6.5" fill="white"/>
<rect x="807" y="270" width="3" height="3" rx="1.5" fill="#111111"/>
<rect x="813" y="238" width="13" height="13" rx="6.5" fill="white"/>
<rect x="818" y="243" width="3" height="3" rx="1.5" fill="#111111"/>
<rect x="800" y="219" width="13" height="13" rx="6.5" fill="white"/>
<rect x="805" y="224" width="3" height="3" rx="1.5" fill="#111111"/>
<rect x="849" y="184" width="13" height="13" rx="6.5" fill="white"/>
<rect x="854" y="189" width="3" height="3" rx="1.5" fill="#111111"/>
<rect x="943" y="278" width="13" height="13" rx="6.5" fill="white"/>
<rect x="948" y="283" width="3" height="3" rx="1.5" fill="#111111"/>
<rect x="1020" y="130" width="13" height="13" rx="6.5" fill="white"/>
<rect x="1025" y="135" width="3" height="3" rx="1.5" fill="#111111"/>
<rect x="1182" y="228" width="13" height="13" rx="6.5" fill="white"/>
<rect x="1187" y="233" width="3" height="3" rx="1.5" fill="#111111"/>
<rect x="1349" y="458" width="13" height="13" rx="6.5" fill="white"/>
<rect x="1354" y="463" width="3" height="3" rx="1.5" fill="#111111"/>
<rect x="1456" y="503" width="13" height="13" rx="6.5" fill="white"/>
<rect x="1461" y="508" width="3" height="3" rx="1.5" fill="#111111"/>
<rect x="1499" y="251" width="13" height="13" rx="6.5" fill="white"/>
<rect x="1504" y="256" width="3" height="3" rx="1.5" fill="#111111"/>
<rect x="896" y="211" width="13" height="13" rx="6.5" fill="white"/>
<rect x="901" y="216" width="3" height="3" rx="1.5" fill="#111111"/>
</svg>
