<svg width="20" height="19" viewBox="0 0 20 19" fill="none" xmlns="http://www.w3.org/2000/svg">
<g clip-path="url(#clip0)">
<path d="M10 0C4.76179 0 0.5 4.26179 0.5 9.5C0.5 14.7382 4.76179 19 10 19C15.2382 19 19.5 14.7382 19.5 9.5C19.5 4.26179 15.2382 0 10 0ZM10 17.4167C7.84335 17.4167 5.88754 16.5476 4.45835 15.1442V13.8542C4.45835 13.4776 4.6269 13.2353 4.82172 12.9546C5.02233 12.6659 5.25 12.3385 5.25 11.875C5.25 11.12 4.56849 11.0435 4.20203 11.0026C3.93993 10.9732 3.69256 10.9453 3.55069 10.8035C3.44322 10.696 3.33575 10.5008 3.22212 10.2944C2.99646 9.88379 2.69057 9.34084 2.10821 9.0083C2.36423 4.87231 5.80059 1.58335 10 1.58335C10.2173 1.58335 10.4309 1.59871 10.6438 1.61596C10.6005 1.64443 10.5474 1.66376 10.5118 1.69931C10.4349 1.77624 10.3928 1.88178 10.3958 1.99077C10.3993 2.09939 10.4472 2.20222 10.5284 2.27488C10.6707 2.40127 10.6981 2.46506 10.7036 2.46506C10.6947 2.48399 10.622 2.60808 10.2169 2.81374C9.54812 3.15274 8.7758 3.84661 8.66098 4.56872C8.6084 4.89651 8.70351 5.20073 8.92847 5.42572C9.00269 5.49994 9.10318 5.54169 9.20835 5.54169C9.75805 5.54169 10.1828 5.33837 10.5938 5.14199C11.0155 4.94056 11.414 4.75 11.9792 4.75C13.5327 4.75 14.75 5.0979 14.75 5.54165C14.75 5.70438 14.6993 5.75425 14.68 5.77281C14.4856 5.96414 13.8235 5.95179 13.2413 5.94288C13.0871 5.94017 12.9293 5.93746 12.7708 5.93746C12.2335 5.93746 12.0669 5.85898 11.874 5.76776C11.6494 5.66185 11.3951 5.54162 10.7917 5.54162C10.1392 5.54162 8.92654 5.65951 8.13678 6.44924C7.49085 7.09479 7.55924 7.86711 7.60411 8.37778C7.61454 8.4953 7.625 8.60663 7.625 8.70827C7.625 9.48794 8.4217 9.89577 9.20835 9.89577C10.4183 9.89577 11.4643 10.1215 11.5833 10.2916C11.5833 10.7346 11.7152 11.0373 11.8211 11.28C11.9092 11.483 11.9792 11.643 11.9792 11.8749C11.9792 12.0543 11.9498 12.0926 11.8705 12.1946C11.7194 12.391 11.5833 12.6048 11.5833 13.0624C11.5833 13.8955 12.3854 14.8093 12.4766 14.911C12.5528 14.9952 12.6603 15.0416 12.7708 15.0416C12.8036 15.0416 12.8365 15.0378 12.869 15.0293C13.1021 14.9693 15.1458 14.4069 15.1458 13.0625C15.1458 12.6411 15.2768 12.5275 15.4755 12.355C15.6703 12.1857 15.9375 11.9542 15.9375 11.4791C15.9375 11.1618 16.5007 10.3426 17.0225 9.76552C17.0964 9.68395 17.1331 9.57496 17.1234 9.46515C17.1138 9.35538 17.0589 9.25448 16.9719 9.18721C16.6642 8.9487 15.8146 8.17211 15.5301 7.41872C15.6913 7.503 15.893 7.64023 16.0535 7.80065C16.1853 7.93324 16.362 7.99663 16.5629 7.98854C16.8835 7.97024 17.2644 7.71693 17.6253 7.40098C17.8099 8.07066 17.9167 8.7724 17.9167 9.5C17.9167 13.8654 14.3654 17.4167 10 17.4167Z" fill="white"/>
</g>
<defs>
<clipPath id="clip0">
<rect width="19" height="19" fill="white" transform="translate(0.5)"/>
</clipPath>
</defs>
</svg>
