<svg width="20" height="19" viewBox="0 0 20 19" fill="none" xmlns="http://www.w3.org/2000/svg">
<g clip-path="url(#clip0)">
<path d="M1.05581 14.5099H15.6033C15.7338 14.5099 15.8599 14.4643 15.9599 14.3811C16.0997 14.2641 19.287 11.5221 19.4814 5.60327H3.85762C3.66401 10.976 0.728606 13.5013 0.6981 13.5265C0.519262 13.6776 0.453464 13.9245 0.533921 14.1441C0.613821 14.3631 0.822051 14.5099 1.05581 14.5099Z" fill="white"/>
<path d="M18.9433 2.26323H16.16V1.70657C16.16 1.39484 15.915 1.1499 15.6033 1.1499C15.2916 1.1499 15.0466 1.39484 15.0466 1.70657V2.26323H12.2262V1.70657C12.2262 1.39484 11.9813 1.1499 11.6695 1.1499C11.3578 1.1499 11.1129 1.39484 11.1129 1.70657V2.26323H8.32955V1.70657C8.32955 1.39484 8.08461 1.1499 7.77288 1.1499C7.46115 1.1499 7.21621 1.39484 7.21621 1.70657V2.26323H4.43289C4.12115 2.26323 3.87622 2.50817 3.87622 2.8199V4.4899H19.5V2.8199C19.5 2.50817 19.255 2.26323 18.9433 2.26323Z" fill="white"/>
<path d="M16.6748 15.2346C16.3725 15.4863 15.9931 15.6233 15.6033 15.6233H3.87622V17.2933C3.87622 17.601 4.1252 17.85 4.43289 17.85H18.9433C19.251 17.85 19.5 17.601 19.5 17.2933V11.0532C18.4267 13.6863 16.9291 15.0218 16.6748 15.2346Z" fill="white"/>
</g>
<defs>
<clipPath id="clip0">
<rect width="19" height="19" fill="white" transform="translate(0.5)"/>
</clipPath>
</defs>
</svg>
