<svg width="20" height="19" viewBox="0 0 20 19" fill="none" xmlns="http://www.w3.org/2000/svg">
<g clip-path="url(#clip0)">
<path d="M10 0C4.75286 0 0.5 4.25327 0.5 9.5C0.5 14.7467 4.75286 19 10 19C15.2471 19 19.5 14.7463 19.5 9.5C19.5 4.25369 15.2467 0 10 0ZM10.5751 13.7318V14.8315C10.5751 15.003 10.4415 15.1279 10.2696 15.1279H9.53656C9.36457 15.1279 9.22608 15.003 9.22608 14.8315V13.8285C8.55137 13.7979 7.87088 13.6541 7.35576 13.4581C7.0767 13.3523 6.92125 13.0534 6.99526 12.764L7.11474 12.2984C7.15649 12.1351 7.26563 11.9987 7.41488 11.9222C7.56412 11.8445 7.73941 11.8367 7.8961 11.8966C8.38683 12.0864 8.96645 12.2244 9.58534 12.2244C10.3733 12.2244 10.9128 11.9202 10.9128 11.367C10.9128 10.8416 10.4705 10.5096 9.44684 10.1635C7.96721 9.66578 6.95391 8.97454 6.95391 7.63299C6.95391 6.41629 7.81507 5.46212 9.28726 5.17148V4.16852C9.28726 3.99695 9.43403 3.84316 9.60601 3.84316H10.339C10.511 3.84316 10.6371 3.99695 10.6371 4.16852V5.07433C11.2808 5.10203 11.7455 5.19753 12.1341 5.32404C12.428 5.41995 12.6017 5.72795 12.5243 6.02809L12.4193 6.44482C12.3784 6.60357 12.2734 6.73835 12.1295 6.81607C11.9857 6.89379 11.8157 6.90785 11.6603 6.85452C11.3072 6.73339 10.8467 6.62342 10.2629 6.62342C9.36416 6.62342 9.07352 7.01079 9.07352 7.39817C9.07352 7.85458 9.55764 8.14481 10.733 8.58758C12.3784 9.16844 13.0395 9.92913 13.0395 11.1731C13.0391 12.4039 12.1696 13.4556 10.5751 13.7318Z" fill="white"/>
</g>
<defs>
<clipPath id="clip0">
<rect width="19" height="19" fill="white" transform="translate(0.5)"/>
</clipPath>
</defs>
</svg>
