<svg width="84" height="29" viewBox="0 0 84 29" fill="none" xmlns="http://www.w3.org/2000/svg">
<path d="M51.7417 28.5427C51.5697 28.4729 51.3839 28.4311 51.2187 28.3404C50.6956 28.0615 50.4134 27.4409 50.5304 26.8552C50.6543 26.2346 51.1292 25.7884 51.728 25.7256C51.8656 25.7117 52.0102 25.7047 52.1478 25.7047C58.0255 25.7047 63.91 25.7047 69.7876 25.7047C70.3933 25.7047 70.9439 25.5443 71.4257 25.1678C72.1896 24.5611 72.2103 23.6895 71.4669 23.062C70.9783 22.6436 70.4002 22.4832 69.767 22.4832C64.9768 22.4832 60.1866 22.4832 55.3963 22.4832C53.8891 22.4832 52.5814 21.9672 51.5353 20.8516C50.0418 19.2478 50.0349 16.884 51.5009 15.2384C51.5628 15.1687 51.6247 15.1059 51.6936 15.0222C51.1774 14.5341 50.8126 13.9554 50.6061 13.279C49.9454 11.1244 50.9847 8.94188 53.1251 7.97265C53.8753 7.63097 54.6668 7.48454 55.4858 7.48454C60.2347 7.48454 64.9836 7.47757 69.7326 7.48454C71.2949 7.48454 72.6714 8.00054 73.7382 9.1929C75.3968 11.0477 75.0665 13.8159 73.0224 15.3221C72.0382 16.0472 70.937 16.368 69.7257 16.368C64.963 16.368 60.1934 16.368 55.4308 16.368C54.7976 16.368 54.2194 16.5353 53.7377 16.9537C53.0081 17.5883 53.0081 18.4529 53.7445 19.0804C54.2401 19.5058 54.8251 19.6592 55.4652 19.6592C58.8858 19.6592 62.3064 19.6592 65.7201 19.6592C67.1172 19.6592 68.5144 19.6383 69.9046 19.6662C71.3775 19.6941 72.6645 20.2101 73.6831 21.3118C75.445 23.2223 75.0458 26.1091 72.8297 27.6013C72.0657 28.1173 71.2261 28.4032 70.3107 28.4869C70.2487 28.4938 70.1868 28.5148 70.1249 28.5287C63.9995 28.5427 57.8672 28.5427 51.7417 28.5427ZM62.74 13.5719C65.0593 13.5719 67.3787 13.5719 69.6981 13.5719C70.3589 13.5719 70.9714 13.4115 71.4876 12.9652C72.1758 12.3656 72.1827 11.5149 71.4945 10.9082C70.9921 10.4689 70.4002 10.2946 69.7532 10.2946C64.9836 10.2876 60.2072 10.2876 55.4376 10.2946C54.8044 10.2946 54.2126 10.4689 53.717 10.8873C52.8774 11.6055 53.0288 12.77 54.0198 13.2372C54.5154 13.4673 55.0384 13.5649 55.5822 13.5649C57.9704 13.5719 60.3586 13.5719 62.74 13.5719Z" fill="white"/>
<path d="M83.9997 4.96735C83.9584 5.12772 83.9171 5.28113 83.8827 5.4415C83.5042 7.22656 82.0382 8.54444 80.2625 8.76757C78.1289 9.03951 75.961 7.55429 75.6031 5.17653C75.2658 2.91732 76.7387 0.727833 79.0994 0.330378C81.3775 -0.0531305 83.5523 1.54366 83.924 3.82379C83.9446 3.93536 83.9722 4.04693 83.9997 4.15849C83.9997 4.43741 83.9997 4.70238 83.9997 4.96735Z" fill="white"/>
<path d="M35.8366 22.4484C32.7807 22.4484 29.7249 22.4484 26.6691 22.4484C25.6367 22.4484 24.9553 21.5279 25.2857 20.5796C25.4715 20.0497 25.8569 19.7359 26.4144 19.6522C26.5383 19.6383 26.6622 19.6383 26.7861 19.6383C32.6913 19.6383 38.5964 19.6383 44.5016 19.6383C45.1004 19.6383 45.6648 19.5128 46.1603 19.1432C47.0344 18.4947 47.0344 17.5185 46.1672 16.87C45.6923 16.5144 45.1486 16.375 44.5636 16.375C39.8009 16.375 35.0313 16.375 30.2686 16.375C28.9334 16.375 27.729 15.9915 26.7104 15.0989C24.5149 13.1744 24.7764 9.94597 27.2541 8.34918C28.1626 7.76346 29.1674 7.49152 30.2342 7.48454C36.1876 7.47757 42.1409 7.48454 48.0943 7.48454C48.7963 7.48454 49.3125 7.83319 49.5189 8.43286C49.7117 8.99766 49.5327 9.62522 49.0785 9.98781C48.81 10.204 48.5003 10.2876 48.1562 10.2876C42.2166 10.2807 36.2839 10.2876 30.3443 10.2876C29.718 10.2876 29.1261 10.4132 28.6237 10.8106C28.2108 11.1314 27.9355 11.5358 28.0112 12.0936C28.0662 12.4911 28.2933 12.7839 28.5962 13.021C29.1055 13.4324 29.6974 13.5649 30.3374 13.5649C35.1139 13.5649 39.8835 13.5579 44.6599 13.5649C46.1603 13.5649 47.4817 14.0809 48.5072 15.2244C50.1865 17.0932 49.9112 19.7987 47.9222 21.3257C46.9449 22.0788 45.8437 22.4344 44.6255 22.4344C41.6798 22.4484 38.7616 22.4484 35.8366 22.4484Z" fill="white"/>
<path d="M12.3395 7.48454C14.6589 7.48454 16.9783 7.47757 19.3046 7.48454C20.6811 7.49152 21.9268 7.88897 22.9661 8.83031C24.9689 10.6502 24.8313 13.6346 22.6702 15.2872C21.686 16.0403 20.5641 16.375 19.339 16.375C16.5585 16.375 13.7711 16.375 10.9906 16.375C10.3574 16.375 9.78613 16.5563 9.29748 16.9746C8.60235 17.5743 8.60923 18.425 9.29748 19.0247C9.80678 19.4709 10.4056 19.6313 11.0594 19.6313C15.0099 19.6313 18.9536 19.6313 22.9042 19.6313C23.6819 19.6313 24.2325 20.0845 24.3564 20.8237C24.4871 21.5628 23.9572 22.3089 23.2276 22.4205C23.0969 22.4414 22.9661 22.4414 22.8353 22.4414C18.8985 22.4414 14.9549 22.4414 11.0181 22.4414C9.85496 22.4414 8.78129 22.1276 7.83151 21.4373C5.30563 19.6034 5.40887 16.11 8.0311 14.4226C8.91894 13.8508 9.88937 13.5649 10.9355 13.5649C13.7298 13.5579 16.5172 13.5649 19.3115 13.5649C19.9997 13.5649 20.6398 13.3975 21.1491 12.8955C21.7823 12.2749 21.7548 11.494 21.0941 10.9152C20.5985 10.4759 19.9997 10.3016 19.3597 10.2946C14.5832 10.2876 9.81366 10.2876 5.03722 10.2946C3.72954 10.2946 2.77976 11.2987 2.77976 12.6096C2.77976 15.3988 2.77976 18.1949 2.77976 20.984C2.77976 21.8138 2.19475 22.4344 1.40326 22.4414C0.618659 22.4553 0.00611777 21.8347 0.00611777 21.005C0.00611777 18.1461 -0.00764721 15.2872 0.00611777 12.4283C0.0198827 9.82743 2.07775 7.68676 4.71374 7.50546C5.01657 7.48454 5.32628 7.48454 5.62911 7.48454C7.86592 7.48454 10.1027 7.48454 12.3395 7.48454Z" fill="white"/>
<path d="M12.5939 27.2666C12.6008 27.169 12.6077 27.0784 12.6077 26.9808C12.6077 26.6042 12.6146 26.2277 12.6077 25.8512C12.6008 25.6559 12.6628 25.5862 12.8624 25.5862C13.0757 25.5862 13.1239 25.6629 13.1239 25.8651C13.117 26.6251 13.1239 27.3852 13.117 28.1452C13.117 28.2359 13.0688 28.4032 13.0207 28.4102C12.8624 28.4381 12.6765 28.4939 12.5595 28.2986C12.3118 27.8942 12.0502 27.4968 11.7956 27.0993C11.713 26.9738 11.6304 26.8552 11.5547 26.7297C11.534 26.7297 11.5065 26.7367 11.4859 26.7367C11.4859 26.8622 11.4859 26.9877 11.4859 27.1132C11.4859 27.4828 11.479 27.8454 11.4859 28.215C11.4927 28.4102 11.3964 28.4311 11.245 28.4311C11.0936 28.4311 10.9766 28.4241 10.9766 28.215C10.9834 27.4479 10.9766 26.6809 10.9834 25.9139C10.9834 25.8093 11.0316 25.635 11.1004 25.6141C11.2587 25.5653 11.4308 25.5653 11.5478 25.7675C11.8093 26.2137 12.0984 26.6391 12.3737 27.0714C12.4219 27.1481 12.4769 27.2178 12.532 27.2876C12.5458 27.2736 12.5733 27.2736 12.5939 27.2666Z" fill="white"/>
<path d="M41.8447 27.2877C41.8447 26.9669 41.8447 26.6462 41.8447 26.3254C41.8447 26.1859 41.8447 26.0395 41.8447 25.9001C41.8447 25.5932 41.8722 25.5723 42.1682 25.5932C42.3058 25.6002 42.354 25.663 42.354 25.7955C42.354 26.5973 42.354 27.3992 42.3471 28.2011C42.3471 28.2778 42.2921 28.4103 42.2508 28.4173C42.0925 28.4382 41.9067 28.5009 41.7828 28.3057C41.5006 27.8525 41.2115 27.4062 40.9225 26.9599C40.8674 26.8763 40.8123 26.7996 40.6953 26.7368C40.6885 26.8205 40.6747 26.9041 40.6678 26.9878C40.6678 27.3783 40.6609 27.7688 40.6678 28.1662C40.6678 28.3406 40.6472 28.4521 40.4338 28.4452C40.2273 28.4452 40.186 28.3545 40.186 28.1732C40.1929 27.4132 40.186 26.6531 40.1929 25.8931C40.1929 25.7955 40.248 25.6351 40.3099 25.6211C40.4613 25.5793 40.6265 25.5654 40.7435 25.7536C41.0188 26.2069 41.3148 26.6531 41.5969 27.0994C41.6451 27.1761 41.7002 27.2458 41.7484 27.3155C41.7896 27.3016 41.8172 27.2946 41.8447 27.2877Z" fill="white"/>
<path d="M7.78357 27.0157C7.76292 27.2528 7.75604 27.4829 7.71474 27.6991C7.61839 28.1941 7.17103 28.5079 6.62731 28.4661C6.12489 28.4312 5.73947 28.0547 5.71882 27.5526C5.70505 27.1831 5.70505 26.8065 5.71882 26.437C5.73947 25.9558 6.14553 25.5863 6.66172 25.5514C7.15038 25.5166 7.61839 25.8373 7.70786 26.2836C7.75604 26.5276 7.76292 26.7786 7.78357 27.0157ZM7.28115 27.0227C7.2605 26.8065 7.25362 26.5974 7.21232 26.3951C7.15726 26.1302 6.93702 25.9907 6.68237 26.0186C6.44148 26.0395 6.24877 26.2138 6.24189 26.4718C6.22812 26.8344 6.22812 27.204 6.24189 27.5666C6.24877 27.8106 6.4346 27.985 6.6686 28.0128C6.93702 28.0407 7.15726 27.9152 7.2192 27.6572C7.25362 27.448 7.25362 27.2249 7.28115 27.0227Z" fill="white"/>
<path d="M47.5849 26.3949C47.3578 26.4298 47.1513 26.4925 46.9999 26.2136C46.8898 26.0114 46.6627 25.9765 46.4493 26.0254C46.2429 26.0742 46.0846 26.2136 46.0777 26.4437C46.0639 26.8272 46.057 27.2107 46.0777 27.5873C46.0983 27.8871 46.3599 28.0475 46.6696 28.0057C46.938 27.9708 47.1651 27.6989 47.1169 27.4409C47.11 27.3851 46.9655 27.3432 46.8829 27.3153C46.7797 27.2875 46.6214 27.3711 46.6076 27.1619C46.5939 26.9806 46.6352 26.8761 46.8485 26.89C47.0481 26.9039 47.2477 26.883 47.4404 26.9039C47.5023 26.9109 47.6056 26.9946 47.6125 27.0504C47.6193 27.2735 47.6331 27.5036 47.5849 27.7198C47.4817 28.2148 47.0137 28.5077 46.4769 28.4659C45.9744 28.424 45.5959 28.0545 45.5753 27.5454C45.5546 27.1759 45.5546 26.7993 45.5821 26.4228C45.6097 25.9277 46.0295 25.5651 46.5595 25.5512C47.0894 25.5373 47.5023 25.872 47.5849 26.3949Z" fill="white"/>
<path d="M21.3213 26.6879C21.3213 26.409 21.3281 26.137 21.3213 25.8581C21.3144 25.6489 21.3832 25.5792 21.5897 25.5862C21.7893 25.5862 21.8443 25.6559 21.8375 25.8511C21.8237 26.388 21.8306 26.918 21.8375 27.4549C21.8375 27.8035 22.0164 28.0058 22.333 28.0127C22.6633 28.0197 22.8629 27.8175 22.8698 27.4688C22.8767 26.925 22.8836 26.3811 22.8698 25.8372C22.8629 25.621 22.9593 25.5862 23.1382 25.5862C23.3172 25.5862 23.3929 25.635 23.386 25.8302C23.3722 26.388 23.386 26.9528 23.3791 27.5107C23.3722 28.0755 22.9455 28.466 22.3536 28.4729C21.7686 28.4729 21.3488 28.0894 21.3281 27.5177C21.3213 27.2387 21.3281 26.9598 21.3213 26.6879Z" fill="white"/>
<path d="M18.0935 25.8582C17.9627 26.0883 17.825 26.1999 17.5497 26.0604C17.4121 25.9907 17.2125 26.0047 17.0404 26.0256C16.8615 26.0465 16.7514 26.1929 16.7445 26.3742C16.7376 26.5555 16.8477 26.6741 17.0198 26.7089C17.1987 26.7508 17.3777 26.7717 17.5497 26.7996C17.9283 26.8623 18.121 27.0576 18.2036 27.448C18.2655 27.7549 18.1279 28.0896 17.8526 28.2708C17.3777 28.5916 16.538 28.501 16.187 28.0965C16.3247 27.9013 16.4348 27.7409 16.7307 27.9152C16.8959 28.0128 17.1437 27.9989 17.357 27.985C17.5566 27.971 17.7149 27.8455 17.7149 27.6084C17.7149 27.3923 17.5842 27.2807 17.3777 27.2528C17.2125 27.2319 17.0542 27.204 16.8959 27.1622C16.5036 27.0715 16.3109 26.8763 16.2834 26.5485C16.2421 26.0814 16.3935 25.8024 16.772 25.6351C17.1919 25.4608 17.7425 25.5445 18.0935 25.8582Z" fill="white"/>
<path d="M2.64189 26.3949C2.40101 26.4228 2.19453 26.4646 2.02935 26.1997C1.95364 26.0811 1.71964 26.0323 1.55446 26.0253C1.36175 26.0184 1.18969 26.1648 1.17592 26.36C1.14839 26.7854 1.14839 27.2247 1.17592 27.65C1.18969 27.8453 1.35487 27.9638 1.54758 27.9987C1.74717 28.0335 1.95364 27.9917 2.04312 27.8034C2.18765 27.5106 2.40789 27.6012 2.62813 27.6221C2.5593 28.3543 1.66458 28.7099 1.03827 28.2776C0.776738 28.1033 0.632205 27.8453 0.625323 27.5454C0.611558 27.1201 0.611558 26.6947 0.666618 26.2764C0.721678 25.8371 1.20345 25.5233 1.68523 25.5442C2.20141 25.5721 2.57995 25.8998 2.64189 26.3949Z" fill="white"/>
<path d="M32.0373 27.2109C32.0373 26.8971 32.0304 26.5763 32.0373 26.2626C32.0442 26.0882 31.9822 26.0185 31.8102 26.0255C31.7138 26.0324 31.6106 26.0185 31.5142 26.0255C31.3697 26.0324 31.2871 25.9906 31.2871 25.8163C31.2871 25.635 31.3559 25.5862 31.5211 25.5862C32.0511 25.5932 32.5741 25.5932 33.1041 25.5862C33.2486 25.5862 33.3312 25.621 33.3312 25.7954C33.3312 25.9767 33.2624 26.0255 33.0972 26.0255C32.5053 26.0185 32.5466 25.9557 32.5466 26.5972C32.5466 27.1202 32.5397 27.6502 32.5535 28.1731C32.5604 28.3963 32.464 28.4311 32.2713 28.4381C32.0579 28.4451 32.0235 28.3474 32.0304 28.1661C32.0442 27.8454 32.0373 27.5246 32.0373 27.2109Z" fill="white"/>
<path d="M26.6341 27.0085C26.6341 26.6111 26.641 26.2066 26.6272 25.8092C26.6203 25.593 26.7442 25.593 26.8956 25.593C27.0539 25.593 27.1434 25.6209 27.1365 25.8092C27.1296 26.4577 27.1365 27.1131 27.1296 27.7616C27.1296 27.9429 27.1847 28.0196 27.3705 28.0056C27.6596 27.9917 27.9487 28.0056 28.2377 27.9987C28.396 27.9917 28.4304 28.0754 28.4304 28.2148C28.4304 28.3613 28.3823 28.431 28.2308 28.424C27.7697 28.417 27.3086 28.417 26.8475 28.424C26.6892 28.424 26.6272 28.3682 26.6272 28.2079C26.641 27.8104 26.6341 27.4129 26.6341 27.0085Z" fill="white"/>
<path d="M36.9033 27.0017C36.9033 27.4061 36.8965 27.8036 36.9102 28.208C36.9171 28.4172 36.8139 28.4381 36.6487 28.4381C36.4835 28.4381 36.394 28.4032 36.394 28.201C36.4009 27.4061 36.4009 26.6112 36.394 25.8163C36.394 25.6141 36.4904 25.5862 36.6556 25.5862C36.8208 25.5862 36.9171 25.621 36.9102 25.8233C36.8965 26.2137 36.9033 26.6042 36.9033 27.0017Z" fill="white"/>
</svg>
