<svg width="154" height="165" viewBox="0 0 154 165" fill="none" xmlns="http://www.w3.org/2000/svg">
<path d="M151.719 44.9482L78.9963 0.568966C78.4259 0.284483 77.5704 0 77 0C76.1444 0 75.5741 0.284483 74.7185 0.568966L1.9963 44.9482C0.855555 45.5172 0 46.9396 0 48.362V115.5C0 116.922 0.855555 118.345 1.9963 119.198L74.7185 164.431C75.2889 165 76.1444 165 77 165C77.8556 165 78.7111 164.715 79.2815 164.431L152.004 119.198C153.144 118.345 154 116.922 154 115.5V48.362C153.715 46.9396 153.144 45.5172 151.719 44.9482ZM77 88.4741L70.4407 84.4914L62.1704 89.612L72.7222 96.1552V153.336L12.5481 115.784L77 76.5258L83.5592 80.5086L91.8296 75.3879L81.2778 69.1293V11.9483L141.452 48.6465L77 88.4741ZM47.3407 80.2241L55.6111 75.1034L12.5481 48.6465L72.7222 11.9483V69.1293L8.55555 108.103V56.0431L47.3407 80.2241ZM145.159 108.103L106.374 84.4914L98.1037 89.612L141.167 115.784L81.2778 153.052V95.8707L145.444 56.0431V108.103H145.159Z" fill="white"/>
</svg>
